<?xml version="1.0" encoding="UTF-8"?>
<svg id="Layer_1" data-name="Layer 1" xmlns="http://www.w3.org/2000/svg" viewBox="0 0 1145.21 749.24">
  <defs>
    <style>
      .cls-1 {
        fill: #6492bd;
      }
    </style>
  </defs>
  <g id="FinXFi">
    <g>
      <path class="cls-1" d="M650.44,487.48c-6.32-.85-11.48,1.65-16.85,2.68-.81,.16-1.66,.97-2.33,.81-5.47-1.31-9.91,.87-12.99,4.88-3.65,4.74-9.15,5.46-14.33,7.53,2.39,2.42,5.37,3.25,7.02,5.73,.27,.4,.87,.85,1.29,.83,1.4-.07,3.08-1.78,4.11,.18,1.41,2.66,4.27,4.36,4.52,7.84,.44,6.03-1.05,9.22-6.97,10.54-5.04,1.13-8.55,4.43-12.53,7.05-3.87,2.54-8.1,2.35-11.63-.52-3.2-2.61-5.75-5.14-5.2-9.67,.18-1.5-1.25-1.88-2.41-2.48-4.86-2.52-7.26-8.44-5.67-13.46,.45-1.41,1.37-2.01,2.75-2.15,.97-.1,1.96-.12,2.91-.34,1.56-.35,3.38-1.17,3.25-2.76-.16-1.89-2.21-.99-3.47-1.13-1.38-.15-2.78-.3-4.15-.19-2.31,.19-2.84-6.16-6-1.77-1.62,2.26-3.77,3.14-6.04,4.15-.26,.12-.55,.78-.45,1.04,1.9,5.13-2.98,8.24-3.77,12.59-.24,1.33-.75,3.16-2.22,3.9-3.33,1.66-3.82,3.59-1.33,6.51,1.33,1.56,.83,3.12-1.26,3.92-.63,.24-1.56,.57-1.71,1.06-1.61,5.17-6.42,8.81-6.42,14.86,0,4.86-3.07,9.13-4.15,13.87-.46,2.04-.63,3.26,1.09,5.05,3.16,3.28,5.77,7.12,8.39,10.87,1.81,2.59,.97,6.55-2.25,7.83-6.36,2.54-11.53,8.33-19.59,6.6-2.76-.6-5.84,1.31-9.11,1.39-3.49,.08-6.09-.1-8.71-2.44-2.38-2.12-5.34-1.07-5.35,2.07-.02,5.47-2.71,7.05-7.64,6.86-2.43-.09-3.75,1.93-1.78,3.43,3.62,2.75,3.61,6.85,4.66,10.39,.81,2.74,1.77,4.84,4.04,6.44,1.77,1.26,2.9,2.77,2.92,5.19,.03,3.13-.97,4.68-4.33,4.58-5.02-.14-10.07,.23-15.08-.08-4.78-.29-8.1-4.08-12.23-6.01-1.74-.82-3.29-1.94-5.21-2.53-3.25-.98-5.7-2.97-6.02-6.71-.13-1.48-.8-2.88-1.88-3.64-4.44-3.09-4.17-8.14-5.71-12.49-2.33-6.58-2.95-13.46-4.28-20.21-.12-.6-.7-1.51-1.16-1.57-4.07-.52-5.17-4.31-7.65-6.58-5.05-4.63-11.02-8.01-17.51-10.2-2.68-.9-4.91-1.85-6.06-4.56-1.76-4.14-6.2-4.94-9.36-7.31-1.32-.98-2.68-1.68-2.51-3.42,.31-3.24-1.52-4.8-4.11-6.01-1.63-.76-3.57-1.39-4.33-3.14-2.46-5.7-8.62-7.03-12.39-11.34-3.01,6.07-2.74,10.92,2.34,15.55,2.55,2.32,4.71,5.49,5.64,9.15,.82,3.2,2.98,5.66,5.25,7.88,6.61,6.44,12.92,12.89,21.07,17.96,8.63,5.37,17.38,11.53,23.99,19.78,1.92,2.4,.67,8.68-1.83,10.35-1.52,1.01-2.67,.09-3.82-.66-2.15-1.4-3.58-1.11-3.18,1.68,1.33,9.39-3.02,17.34-6.24,25.58-1.46,3.73-4.35,4.8-8.1,4.28-3.91-.55-4.33-3.4-4.32-6.51,.01-5.03-.48-10.13,.24-15.06,1-6.9-2.51-10.78-7.73-13.8-2.1-1.22-4.03-2.61-5.55-4.38-5.93-6.92-13.54-10.64-22.32-12.28-1.71-.32-2.29-1.46-2.39-2.97-.15-2.14-1.4-3.76-3.33-3.6-3.11,.26-4.15-1.47-5.2-3.76-.57-1.24-1.33-2.57-2.37-3.39-5.93-4.68-9.3-10.88-11.32-18-.41-1.45-1.21-2.83-2.05-4.09-2.86-4.27-5.68-4.19-8.96-.34-4.5,5.3-8.86,10.8-14.41,15.06-3.29,2.52-7.4,1.5-10.93,.74-3.01-.65-5.95-1.28-9.02-1.33-.42,0-.83-.1-1.25-.12-2.62-.11-6.3-3.26-6.37-2.88-.91,4.87-6.61,7.78-5.29,13.55,1.01,4.37-1.87,7.74-3.51,11.57-2.89,6.73-7.76,9.66-14.33,10.85-5.34,.97-8.39,5.22-12.22,8.34-1.04,.85-1.72,2.07-1.01,3.34,2.47,4.45-.18,8.48-1.21,12.49-.63,2.46-1.19,4.84-1.14,7.33,.14,6.36-2.51,11.38-7.52,15.07-6.06,4.46-10.46,10.67-16.41,15.24-5.59,4.29-11.22,8.24-18.8,7.57-4.29-.37-8.16,1.49-12.13,2.66-4.77,1.41-11.43-1.03-13.54-5.57-.74-1.58-1.25-2.29-2.98-1.68-.94,.33-2.05,.23-2.81-.43-4.78-4.18-10.91-4.33-16.64-5.64-5.25-1.2-6.2-2.69-4.7-7.91,.32-1.12,.89-2.5-.48-2.88-3.49-.99-2.92-3.64-2.81-6.09,.16-3.47-.49-6.39-3.01-9.17-2.36-2.61-1.49-5.94-.03-9.03,3.09-6.56,6.86-13.37,5.14-20.69-1.66-7.06-1.27-14.38-3.53-21.26-1.36-4.15,2.38-7.19,2.44-10.41,.07-4.17,.73-6.84,3.92-9.57,2.9-2.48,6.71-3.39,9.33-6.19,.4-.43,1.33-.67,1.93-.55,6.02,1.13,12.13,1.57,18.18,2.6,6.78,1.15,13.53,3.52,20.85,1.6,4.6-1.21,9.71-.47,14.6-.55,5.02-.08,5.94-.83,6.3-5.66,.14-1.85,.44-3.56,1.59-5.1,3.5-4.67,1.94-10.89,4.77-15.78-2.34-9.33-2.25-19.83-9.74-26.85-2.78-2.61-5.83-6.12-10.19-6.99-1.69-.34-2.12-1.6-2.28-3.09-.24-2.17-1.38-2.89-3.48-2.15-4.21,1.48-7.26-.19-8.17-4.59-.29-1.4-.72-2.57-1.53-3.78-1.97-2.94-1.24-7.07,1.73-8.86,3.04-1.83,6.01-3.93,10.03-3.4,4.08,.54,7.36-.38,10.66-3.84,4.57-4.8,10.31-8.67,17.5-9.08,5.99-.35,9.43-4.81,13.56-8.26,4.53-3.79,6.94-9.21,10.87-13.47,1.21-1.31,2.91-2.36,3.73-3.53,3.06-4.37,6.99-7.67,10.68-11.34,1.85-1.85,2.22-6.17,3.8-9.31,2.11-4.2,7.24-6.46,7.4-11.82,.01-.42,.95-1.06,1.55-1.19,7.72-1.78,14.82-5.01,21.51-9.18,1.5-.94,3.16-1.04,4.84-1.06,3.76-.05,5.97-2.6,7.25-5.48,1.38-3.09-1.58-4.53-3.59-6.26-2.53-2.19-3.69-4.53-3.68-8.49,.03-5.59,3.05-10.65,1.96-16.25-.18-.9-.09-2.14,.42-2.83,2.41-3.31,1.68-5.97-1.39-8.27-1.27-.94-1.21-1.98,.01-2.64,2.35-1.26,4.39-5.03,7.6-.89,1.1,1.42,3.11,.97,4.66,.08,1.21-.69,2.39-1.46,3.47-2.33,2.79-2.24,5.32-2.82,8.51-.3,2.65,2.1,6.33,2.54,8.94,5.12,1.48,1.46,2.45,3.02,3.14,4.8,.88,2.28-.08,3.82-2.57,3.12-3.43-.96-3.18,1.53-2.44,2.89,1.88,3.47,.3,5.17-2.51,6.58-3.33,1.67-2.72,3.6-.44,5.68,1.76,1.61,3.14,3.03-.45,4.23-1.36,.46-1.14,2.09-.89,3.35,.27,1.32,1.27,1.8,2.47,1.83,1.95,.05,3.91,.07,5.86-.03,2.62-.13,4.99,.14,6.69,2.53,.44,.63,1.39,1.37,2.03,1.31,4.93-.48,8.33,2.62,12.04,4.96,1.82,1.15,3.51,1.3,5.51,.39,2.24-1.03,4.67-1.01,6.91,.09,2.73,1.34,4.53,.26,6.05-1.93,.95-1.38,1.91-2.75,2.89-4.11,.57-.79,1.21-2.23,1.79-2.21,6,.17,8.62-5.58,13.43-7.47,2.24-.89,4.15-1.02,6.4-.06,2.66,1.13,5.27,2.62,8.35,2.48,.51-.02,1.27,.17,1.54,.53,3.34,4.66,3.72,1.33,4.68-1.55,1.16-3.49,2.14-6.97,4.67-10.05,1.39-1.7,.22-5.27,1.11-7.67,1.32-3.56-1.51-4.27-3.14-5.92-1.88-1.92-2.15-4.14-.05-5.84,3.08-2.51,3.3-5.87,3.36-9.3,.02-1.09,.08-2.21,.96-2.53,3.6-1.33,5.4-4.59,8.03-6.95,2.55-2.29,12.3-.62,14.81,2.09,1.02,1.1,1.91,2.82,3.67,2.2,1.81-.64,1.09-2.6,1.38-4.05,.81-4.07-3.11-6.03-4.11-9.93-1.81,3.05-3.21,5.88-7.25,5.37-3.09-.39-5.95-1.47-8.88-2.26-1.93-.52-1.54-2.27-.47-3.75,1.6-2.21,4.33-2.41,6.43-3.74,2.44-1.54,4.94-2.98,3.22-6.55-.12-.24-.25-.56-.19-.8,.62-2.75,4.55-2.52,4.99-5.21,.47-2.88,1.44-4.69,4.7-4.61,1.98,.05,3.49-.84,4.01-2.97,.28-1.16,.98-2.25,2.15-2.34,5.52-.44,11.11-1.51,16.49,.63,4.42,1.76,8.62,2.36,12.41-1.23,2.21-2.09,5.67-1.55,7.75-3.87,.89-.99,2.61-1.55,2.2-3.21-.32-1.3-1.78-1.54-2.9-2.11-3.79-1.94-8-2.08-11.99-3.12-.93-.24-1.74-.2-2.28,.5-1.8,2.34-4.47,2.53-7.03,3.21-3.69,.99-7.3,1.92-9.94,5.36-2.32,3.03-6.63,1.27-9.84,2.79-4.3,2.04-8.41-1.27-12.71-1.02-5.19,.3-6.42-4.36-9.41-7.02-4.39-3.9-4.74-8.5-5.72-13.64-.85-4.43-.65-9.22-2.9-13.39-.13-.23-.23-.6-.13-.81,3.5-7.96,.68-16.93,3.98-24.93,.52-1.25,1.46-1.95,2.53-2.67,1.83-1.23,3.09-3.01,2.91-5.25-.27-3.42,1.8-5.11,4.36-6.45,2.97-1.56,5.28-3.55,6.01-7.04,.45-2.15,2.16-2.78,4.14-2.75,2.19,.04,3.35-.8,4.36-2.97,1.39-2.99,3.71-5.54,5.5-8.36,.49-.77,1.84-2.23-.01-2.67-4.21-1.01-4.35-4.78-5.54-7.71-1.04-2.55-2.31-2.69-4.51-1.65-3.28,1.56-5.73,4.44-9.24,5.64-.56,.19-1.21,.97-1.3,1.56-1.01,6.02-5.11,10.98-5.42,17.34-.31,6.45-2.84,11.97-9.04,15.34-3.07,1.67-3.6,5.83-6.49,7.91-.76,.55-1.16,2.01-1.88,2.13-5.11,.84-7.19,5.96-11.42,7.89-3.72,1.7-2.89,5.55-3.91,8.34-1.1,2.99-2.15,5.96-3.73,8.71-1.03,1.79-1.11,3.1,1.04,4,1.9,.79,1.95,2.52,2.06,4.22,.33,5.21,2.39,8.28,7.39,9.58,4.21,1.09,5.4,4.13,5.9,7.64,.37,2.6-.14,5.32,.11,7.95,.44,4.68-.37,8.05-5.79,9.39-3.09,.76-2.22,4.16-1.27,6.08,1.89,3.81,.78,5.8-2.34,8.41-4.01,3.35-6.34,8.29-8.91,12.87-1.14,2.04,.42,3.08,1.76,4.08,1.37,1.02,3.17,2.09,2.55,3.94-2.39,7.09-1.25,15.4-7.46,21.2-1.57,1.47-3.04,2.92-5.15,3.34-1.79,.36-2.73,1.28-2.82,3.07-.11,2.07-1.39,2.69-3.25,3.11-3,.68-5.35,1.98-5.3,5.83,.03,2.56-1.89,4-4.5,3.96-2.61-.04-4.88,.22-6.54,2.69-1.34,1.98-2.85,1.24-3.95-.48-1.94-3.04-3.82-6.12-5.93-9.49-1.16,1.66-.47,3.49-.76,5.12-.28,1.63-.19,3.45-2.13,4.22-1.85,.74-3.17-.22-4.51-1.37-6.32-5.43-6.32-5.4,1.02-9.57,2.95-1.68,4.65-4.01,5-7.65,.5-5.29,1.96-9.74-3.83-14.2-6.22-4.79-8.48-12.93-9.92-20.79-.12-.64-.45-1.53-.93-1.76-2.92-1.36-3.36-3.8-3.26-6.62,.09-2.65-.99-3.12-3.33-1.84-3.74,2.05-7,4.54-9.23,8.24-.71,1.18-1.7,2.26-.88,3.86,1.77-.03,2.08-1.68,2.86-2.67,1-1.26,1.86-2.74,3.66-1.88,1.74,.83,2.99,2.56,2.4,4.4-.63,1.94-.3,3.45,.43,5.15,.44,1.04,.61,2.56-.18,3.21-2.94,2.44-5.97,4.82-9.22,6.81-1.31,.81-2.75-.31-2.96-2-.36-2.88-1.27-5.77-.04-8.67,1.25-2.94-.03-4.66-3.23-6.04,1.23,4.25-.13,6.02-4.21,5.44-1.16-.16-2.1,.73-2.92,1.48-3.32,3.01-6.75,3.01-10.25,.42-1.16-.86-1.98-1.66-3.56-.45-1.09,.84-2.59,.1-3.17-1.13-1.18-2.49-3.24-4.29-5.14-6-4.19-3.78-3.72-8.43-3.41-13.18,.11-1.65,1.09-2.8,2.41-3.74,2.33-1.68,2.65-3.51,.23-5.39-1.16-.9-1.71-2.04-2.08-3.48-1.42-5.41-2.57-10.85-6.96-15.04-3.38-3.23-.55-6.8,1.6-8.74,2.78-2.51,1.6-4.35,.41-6.41-3.47-6-.77-13.24,5.96-14.68,3.97-.85,5.7-3.3,6.39-6.75,.7-3.54,2.99-6.5,3.29-10.24,.14-1.69,1.81-2.91,3.89-3.29,5.2-.96,11.21-8.31,11.33-13.57,.11-4.56,.62-4.96,5.32-4.14,5.89,1.02,8.01,.3,10.22-5.02,1.66-3.99,4.37-5.09,8.19-4.93,.84,.03,1.68,.06,2.51,0,1.07-.08,2.51,.32,2.94-.99,.45-1.34-1.08-1.76-1.82-2.49-.37-.37-.99-.49-1.48-.76-4.63-2.56-4.64-3.37-1.29-7.34,3.15-3.73,5.95-7.66,10.74-9.63,1.92-.79,2.45-2.88,2.43-4.99-.02-3.65,1.55-5.63,5.43-4.65,2.9,.73,2.95-1.11,3.02-3.05,.12-3.03,0-5.97,.86-9.06,1.83-6.53,6.43-10.92,10.72-15.58,1.13-1.23,.7-1.74,.1-2.76-3.64-6.19-.78-11.78,6.39-12.51,1.29-.13,2.5-.46,3.43-1.38,1.23-1.2,2.6-2.66,1.16-4.31-1.38-1.59-2.99-.86-4.34,.49-1.39,1.39-2.85,2.78-4.97,2.8-2.01,.02-4.64,.81-5.43-1.81-.81-2.68-.96-5.6,2.07-7.41,1.55-.93,3.08-1.89,4.65-2.79,5.08-2.96,7.19-2.79,11.17,1.75,1.84,2.1,2.87,.42,3.67-.45,2.07-2.27,3.86-4.77,6.84-6.02,.45-.19,.98-.77,1.04-1.23,1.34-9.39,10.8-9.46,16.26-14.11,.48-.41,1.62-.23,2.4-.08,1.4,.28,2.39,2.3,4.13,1.12,2.18-1.48,4.39-2.93,5.79-5.33,2.79-4.79,8.4-6.75,13.6-4.79,1.06,.4,2.2,1.14,3.18,.52,4.81-3.03,10.85-4.04,14.77-8.41,3.04-3.38,6.48-3.57,10.25-2.26,2.74,.95,4.81,.95,7.21-1.2,5.03-4.53,16.51-3.26,21.17,1.85,3.34,3.66,7.46,5.18,12.36,3.62,3.37-1.07,5.12,.39,5.66,3.55,.28,1.63,.25,3.36,.06,5.01-.26,2.3-1.75,3.43-4.07,3.1-1.56-.23-3.54-1.56-3.56,1.48-.02,2.52,1.27,3.76,3.96,3.67,3.35-.12,5.85-2.54,9.04-3.04,1.21-.19,2.46-.7,3.47-1.38,3.35-2.24,5.57-1.19,7.54,2,1.35,2.18,3.56,3.47,6.09,4.14,2.98,.8,5.76,2.04,8.28,3.87,4.05,2.94,8.98,2.96,13.44,2.52,5.57-.55,7.03-.64,9.37,4.29,1.15,2.42,2.05,3.67,4.17,.92,1.55-2.02,3.23-1.94,4.88-.08,1.55,1.76,3.45,2.54,5.81,2.89,3.3,.49,4.95,3.74,7.59,5.45,1.4,.91,2.78,1.95,4.28,2.89,8.35,5.21,15.45,11.63,18.28,21.55,.64,2.25,.56,4.64,1.65,6.87,1.27,2.6-.97,4.39-2.13,6.39-.38,.66-1.34,1.39-.48,2.18,.71,.65,1.61,.22,2.25-.38,1.02-.95,2.04-1.9,2.95-2.95,2.24-2.61,4.59-4.1,7.8-1.39,1.65,1.39,3.23,.75,4.36-.73,.99-1.3,3.64-2.39,1.97-4.4-3.68-4.41-2.38-10.15-4.48-14.99-1.07-2.45-1.94-4.95-3.85-6.81-1.54-1.5-2.6-3.12-3.37-5.15-2.68-7.05-.38-11.38,7.06-12.78,1.89-.36,3.58-.12,4.75,1.74,1.04,1.65,2.79,2.91,4.59,2.21,4.1-1.6,7.97-1,12.06-.04,3.31,.78,6.08-1.68,9.12-2.58,1.06-.32,1.32-1.38,1.32-2.41,.04-7.91,3.4-6.72,10.09-7.72,1.07-.16,2.22,.27,3.33,.24,5.6-.13,7.27,1.17,8.31,6.6,.25,1.32,.23,2.87-1.01,3.37-4.37,1.78-8.26,5.74-13.64,3.43-3.72-1.6-6.34,1.22-9.38,2.29-.84,.29-.87,1.49-.3,2.2,1.21,1.52,2.31,3.7,3.91,4.21,3.21,1.04,2.99,3.18,2.95,5.59-.04,2.51-1.1,4.2-3.54,5.09-2.69,.98-4.28,3.69-7.37,4.41-1.39,.32-.89,3.06-.27,4.59,1.07,2.63,3.64,2.78,6,3,1.45,.13,2.51-.71,2.58-2.17,.14-2.8,.98-5.13,3.34-6.87,.56-.41,.91-1.49,.88-2.24-.12-2.84,.66-4.9,3.74-5.57,.47-.1,1.02-.62,1.22-1.09,2.64-5.99,8.32-7.91,13.66-10.29,.85-.38,1.27-1.04,1.55-1.86,.34-.98,1.02-2.16,1.97-1.86,4.45,1.44,7.95-1.6,11.62-2.77,3.99-1.27,8.2-2.93,11.35-6.62,2.77-3.24,6.56-6.08,11.09-6.66,5.04-.64,8.29,2.44,8.41,7.59,.09,3.74,1.24,4.43,4.53,2.48,2.94-1.74,6.26-2.46,9.66-1.09,1.86,.75,3.41,.38,5.07-.78,3.59-2.5,8.42-3.2,10.75-7.57,.41-.77,1.69-1.08,2.25-.64,2.95,2.28,6.42-.21,9.55,1.26,1.8,.84,3.11-.55,2.88-2.79-.54-5.42-.69-5.57-6.46-5.19-.74,.05-1.68,.12-1.78-.61-.46-3.14-2.23-3.71-4.93-2.83-.23,.08-.56-.04-.81-.13-3.08-1.1-7.15-9.98-6.1-13.14,1.04-3.11,3.46-3.15,5.78-2.29,2.34,.87,4.27,1.09,6.75,.15,3.21-1.22,6.07-.05,7.38,3.45,.46,1.23,1,2.53,2.16,2.95,2.57,.92,3.4,2.67,4.03,5.21,1,4.02,3.73,4.58,6.66,1.5,1.55-1.62,3.24-1.93,5.25-1.98,4.14-.09,8.29-.51,12.37-.85,3.47-.29,7.63,1.62,11.42,2.57,2.51,.62,6.3,2.37,7.97,4.52,2.64,3.4,7,3.49,9.52,6.53,.43,.51,1.07,1.22,1.61,1.22,4.74-.07,9.08,.56,11.53,5.4,.15,.29,1.05,.42,1.5,.28,.65-.2,.42-.84,.33-1.4-.69-4.55-2.84-7.89-7.19-9.92-4.05-1.9-7.08-5.28-10.23-8.34-2.22-2.15-1.71-7.93,.32-10.3,2.9-3.38,2.95-6.54,0-9.98-1.14-1.34-2.19-2.52-1.07-4.41,.48-.81-.12-1.57-.6-2.28-2.52-3.75-1.9-7.89,1.8-10.75,2.65-2.05,5.69-3.51,8.98-4.19,1.43-.3,2.44-.97,3.62-1.75,4.93-3.28,6.26-7.1,3.62-12.73-1.75-3.72,.56-7.89,.26-11.9-.09-1.28,1.21-1.71,2.3-2.1,4.22-1.51,8.14-3.4,13.11-2.28,2.78,.62,6.09-1.29,9.36-1.16,7.86,.33,16.77,9.18,16.94,16.99,.09,4.02,.52,7.84-2.54,11.45-1.83,2.16-1.2,5.49,.54,8.24,4.44,7.01,7.98,14.26,5.09,22.96-.75,2.26,1.11,3.92,1.97,5.74,.87,1.85,1.86,3.44,.15,5.33-1.19,1.32-.8,2.68,.58,3.55,2.09,1.32,2.74,3.48,3.43,5.57,1.29,3.88,3.39,6.77,7.35,8.51,3.34,1.47,2.45,5.28,1.63,7.45-2.43,6.47-2.49,13.53-5.42,19.82-1.15,2.48-2.33,4.93-3.22,7.58-1.55,4.63-5.57,7.58-9.96,8.74-3.15,.83-5.28,2.59-7.74,4.21-1.19,.79-2.12,1.72-1.2,3.03,.9,1.27,2.31,.87,3.33,0,2.01-1.74,3.81-3.62,6.9-3.25,2.15,.25,3.45,.98,3.45,3.28,0,5.45,2.21,9.98,5.82,13.89,2.02,2.19,3.31,4.7,4.45,7.45,1.65,3.97,3.67,7.76,7.49,10.34,2.35,1.59,3.78,4.06,4.02,7.04,.43,5.33,1.67,10.06,7.06,12.89,2.14,1.12,2.83,4.06,3.77,6.37,2.68,6.63,7.46,12.36,7.87,19.99,.16,2.91,3.09,4.24,5.7,4.86,2.05,.49,3.71,1.42,4.92,2.94,4.3,5.43,10.59,9.91,9.09,18.24-.17,.96-.21,1.95-.48,2.88-1.8,6.2,.26,12.08,5.02,16.38,6.48,5.87,13.59,11.26,17.17,19.69,.31,.73,.83,1.56,1.49,1.94,3.82,2.16,3.62,5.78,2.44,8.84-3.82,9.93-1.88,19.42,1.19,29,1.81,5.67,2.07,11.22,.03,17.15-2.51,7.31-1.06,16.64,6.3,21.73,4.75,3.29,9.13,.69,13.25-1.55,3.53-1.92,6.74-4.44,10.13-6.62,1.17-.75,2.42-1.46,3.73-1.86,5.73-1.74,7.79-.23,7.69,5.73-.06,3.59,.5,7.26-1.22,10.71-.86,1.72,.47,3.19,.93,4.76,1.1,3.74,0,5.22-3.89,5.33-1.67,.05-3.35-.05-5.03-.02-4.89,.08-8.75,2.79-10.09,7.85-1,3.8,1.54,6.83,4.1,8.99,4.64,3.91,10.35,5.31,16.42,4.84,3.2-.25,5.01-1.94,6.49-4.99,3.37-6.9,4.5-14.61,8.14-21.37,.26-.49,.32-1.11,.65-1.53,1.19-1.51,2.21-3.8,4.26-3.62,1.92,.17,1.43,2.71,2.12,4.15,1.26,2.65,1.53,5.24,.18,8.04-.88,1.82-.83,3.93,.76,5.47,2.14,2.08,2.42,4.65,2.18,7.35-.93,10.08,4.08,18.46,7.7,27.24,2.38,5.77,6.08,10.47,11.13,14.18,4.11,3.02,8.28,3.62,12.13,.08,3.86-3.54,7.11-2.88,10.5,.4,6.04,5.83,12.52,4.81,19.2,1.23,6.22-3.33,10.51-1.08,11.36,5.88,.19,1.52-.08,3.27,.59,4.52,1.85,3.43-.06,4.99-2.73,6.1-2.94,1.22-5.99,2.22-9.03,3.16-3.9,1.2-6.17,3.64-6.39,7.79-.07,1.25-.04,2.51-.04,3.77,.01,7.78-.6,8.32-8.22,8.6-4.44,.16-8.34-.43-12.09-3.38-4.38-3.45-11.77-1.73-14.37,2.69-.42,.71-.89,1.48-.97,2.27-.55,5.5-.81,5.78-6.37,5.85-1.26,.02-2.52,.12-3.77,.03-4.16-.32-7.49,.05-7.27,5.67,.09,2.2-1.86,3.98-3.46,5.57-1.69,1.68-3.28,3.37-4.03,5.76-.52,1.66-1.8,2.96-3.63,3.09-4.73,.34-9.63,.99-14.1-.7-3.93-1.49-7.35-.55-9.6,1.99-6.32,7.14-13.1,5.09-20.13,1.93-3.54-1.59-6.92-4.17-11-3.04-4.64,1.29-9.8,2.16-13.41,5.28-5.65,4.88-12.49,7.77-18.35,12.22-1.92,1.46-4.35,2.51-6.99,2.53-1.32,0-2.28,.45-3.03,1.77-2.36,4.16-4.92,5.45-9.17,3.53-4.08-1.84-5.61,.04-6.21,3.26-1.38,7.49-3.52,14.85-3.99,22.49-.17,2.81,0,5.47-3.1,7.19-1.74,.96-1.23,2.66,.56,3.55,3.36,1.67,6.81,2.52,10.42,.68,2.48-1.27,4.94-2.6,7.47-3.77,3.12-1.45,5.19,.02,4.97,3.48-.07,1.11-.06,2.39-.61,3.27-3,4.8-1.27,10.72-3.89,15.63-1.02,1.91-.23,4.16,.63,6.08,3.26,7.29,.48,16.12-9.53,16.99-7.61,.66-14.33,3.77-17.92,11.25-2.87,5.99-2.52,12.47-.48,18.28,2.08,5.93,5.53,11.47,9.77,16.37,2.51,2.9,2.33,6.25,.33,9.32-4.32,6.64-5.1,13.14,.14,19.67,.17,.22,.39,.46,.42,.72,1.18,8.63,7.11,9.33,14.12,8.74,4.44-.37,8.94-.12,13.41-.09,1.8,.01,4.03-.2,4.54,2.05,.58,2.55-2.18,1.92-3.36,2.82-1.84,1.41-4.27,.91-6.29,2.1-7.36,4.37-7.72,12.17-4.84,20.46,2.23,6.4,5.75,12.26,9.4,18.02,1.99,3.14,3.15,6.8,4.69,10.23,.32,.7,.39,1.44-.38,1.79-1.18,.54-2.17,.02-2.98-.88-2.76-3.04-6.04-5.41-9.77-7.07-9.02-4-9.02-4.96-15.06,1.7-.73,.8-1.82,1.27-2.73,1.91-1.53,1.07-2.65,3.38-4.91,2.48-2.51-1-1.63-3.55-1.8-5.54-.11-1.25-.17-2.53,0-3.77,.61-4.37-1.32-6.98-5.14-8.98-4.89-2.56-9.67-5.4-14.21-8.54-8.07-5.58-16.09-5.59-24.16-.39-5.18,3.34-11.13,4.91-16.56,7.66-2.53,1.28-4.79,2.35-5.73,5.5-1.33,4.45-6,3.71-9.16,4.28-8.32,1.51-9.67-.09-13.41-7.97-1.89-3.99-4.98-7.8-10.54-7.64-16.98,.49-32.07-5.34-45.78-14.73-7.95-5.44-13.34-12.98-15.62-22.81-1.45-6.25-2.82-12.7-6.74-18.22-2.54-3.58-5.89-5.39-9.91-6.29-7.53-1.68-10.18-6.1-7.98-13.33,.75-2.46,.78-4.88-.6-7.27-5.15-8.93-11.03-17.37-17.13-25.68-3.11-4.24-8-4.18-12.29-5.46-3.22-.96-5.3-2.47-5.48-5.89-.18-3.36-2.9-4.99-5.1-6.2-8.02-4.43-16.36-8.27-24.53-12.45-5.19-2.65-10.5-5.03-15.38-8.31-4.04-2.71-3.01-6.79-2.95-10.27,.06-3.58-1.21-5.99-3.36-8.49-2.68-3.12-6.41-5.44-7.43-9.89-.34-1.49-1.9-1.45-3.19-1.19-3.61,.74-6.25-.94-8.44-3.47-1.34-1.55-2.68-2.61-4.89-2.71-7.7-.33-11.34-4.6-10.74-12.51,.19-2.56-.78-4.58-2.12-6.61-3.64-5.52-3.5-8.17,1.94-11.91,3.42-2.35,5.71-4.98,7-8.83,1.07-3.18,2.62-5.95,6.3-7.21,1.59-.54,2.65-2.68,4.43-4.62Zm-31.13-307.24c1.26,0,2.51-.02,3.77,0,3.06,.04,4.34-1.78,3.26-4.3-1.73-4.06-1.24-8.22-1.4-12.36-.2-5.02-.31-5.35-4.86-3.12-11.11,5.42-21.87,.91-32.74-.77-.81-.13-1.53-1.15-2.2-1.85-.68-.72-1.32-1.53-2.37-1.58-8.56-.39-15.61-4.63-22.65-8.88-.84-.51-1.77-1.25-2.56-.17-.66,.9-.36,2.02,.61,2.53,2.45,1.29,4.35,3.71,7.3,3.93,4.22,.32,6.64,3.2,9.05,6.08,.61,.73,.93,1.7,1.86,2.18,7.11,3.69,8.23,10.35,8.37,17.33,.16,7.84,5.07,15.1,12.38,17.55,2.22,.74,4.65-.1,6.32-1.12,1.43-.87-.85-2.48-1.27-3.83-1.86-5.91-8.49-11.08-1.86-18.21,1.36-1.46,1.68-3.54,4.25-3.34,2.61,.2,5.12,.7,6.04,3.55,2.04,6.34,1.98,6.36,8.7,6.36Z"/>
      <path class="cls-1" d="M148.55,425.11c-1.4,0-2.8,.04-4.19-.01-1.91-.08-4.37,.32-4.65-2.36-.28-2.75-1.39-5.9,1.89-7.93,4.14-2.57,4.92-4.89,3.25-9.25-2.22-5.81-1.41-6.88,3.54-10.69,3.96-3.05,8.56-5.54,11.39-9.97,1.54-2.42,1.23-4.11-1.2-5.92-5.43-4.04-6.61-11.46-3.1-17.48,.34-.58,1.07-1.11,.62-1.85-.51-.83-1.55-.9-2.25-.59-5.59,2.44-11.42,1.79-17.27,1.67-3.68-.08-3.79,3.63-4.16,5.87-1.03,6.17-1.62,12.45-1.89,18.71-.18,4.28,1.25,8.49,1.8,12.75,.85,6.63-3.45,9.52-7.43,12.75-2.78,2.27-6.12,3.83-8.77,6.35-.91,.86-2.08,1.74-3.35,1.51-4.1-.72-7.69,.75-11.26,2.36-3.03,1.37-5.86,1.59-9.23,.47-2.92-.97-6.36-.37-9.56-.5-3.11-.13-4.17-1.98-2.72-4.47,1.9-3.25,1.91-6.63,1.78-10.12-.11-3.1,1.16-5.01,4.34-5.65,2.63-.54,8.22-6.87,8.62-9.43,.19-1.22-.42-1.78-1.4-2.23-1.64-.76-3.24-1.61-4.9-2.35-2.79-1.24-4.47-2.56-.53-4.56,1-.51,1.19-1.43,1.37-2.43,1.19-6.69,2.22-7.92,9.03-8.99,3.4-.54,6.48-.53,4.05-5.33-.68-1.35,.53-2.35,1.63-3.03,3.66-2.25,6.44-5.29,8.51-9.03,1.15-2.08,2.68-3.17,5.12-1.82,.59,.33,1.41,.63,2,.48,4.12-1.05,7.55-.31,10.09,3.37,.25,.37,1.1,.68,1.49,.54,2.92-1.13,3.97-3.89,4.46-6.49,.45-2.36-.26-4.54-3.67-4.84-5.71-.5-6.76-2.69-6.69-8.3,.09-7.92,2-15.66,1.73-23.58-.08-2.47,.58-4.59,2.14-6.59,2.1-2.69,3.74-5.78,5.56-8.58,2.06-3.16,4.66-6.83,9.35-7.87,3.88-.86,7.57-2.74,11.21-4.46,2.24-1.06,3.65-1.06,4.56,1.48,.68,1.89,2.38,2.66,4.11,3.25,4.54,1.57,5.68,5.33,2.81,9.22-.76,1.03-2.54,1.75-1.7,3.45,.78,1.6,2.45,1.57,4,1.74,5.5,.59,6.61,1.98,6.79,7.39,.21,6.07-.93,12.07-.3,18.21,.58,5.66-1.72,7.42-7.48,7.25-1.45-.04-2.53,.57-3.05,1.78-.67,1.58,.62,2.49,1.77,2.75,2.03,.45,3.41,2.31,6.14,1.58,3.03-.81,4,2.31,4.59,4.78,1.08,4.47,1.59,9.14,5.23,12.55,.39,.37,.96,.94,.91,1.34-.74,5.51,3.27,7.57,6.95,10.08,4.64,3.17,3.46,8.79,5.03,13.25,1.2,3.43,5.3,7.8,8.94,8.54,.64,.13,1.3,.49,1.8,.91,7.64,6.39,7.44,17.6-.39,23.34-4.11,3.01-4.14,3.74,.56,5.53,2.68,1.02,4.2,2.38,3.32,5.17-.95,3.01-2.69,5.62-6.26,5.82-1.53,.08-3.21-.42-4.41,.71-5.83,5.49-12.63,5.27-19.72,3.54-1.49-.36-2.58,.37-3.87,1.01-3.4,1.68-6.96,5.89-10.46-.06-.53-.9-4.83,1.76-5.35,3.33-1.56,4.67-8.61,8.54-13.17,6.91-2.42-.86-3.97-.39-5.42,1.55-.98,1.31-2.36,2.03-4.04,1.49-1.68-.54-1.59-2.08-1.8-3.45-.13-.81-.45-1.59-.65-2.39-.43-1.75-4.8-2.38-1.5-5.16,1.56-1.31,2.7-2.91,4.66-3.99,5.22-2.87,10.09-6.37,15.03-9.72,.96-.65,2.47-1.59,1.93-2.91-.62-1.51-2.23-.32-3.39-.42-.97-.09-1.95-.02-2.93-.02v.05Z"/>
      <path class="cls-1" d="M85.89,86.47c-3.82-.59-8.25,.49-12.46,2.52-2.4,1.16-4.49,1-6.67-.48-1.19-.81-2.79-2.17-3.99-.29-1.75,2.74-4.46,2.69-7.03,2.76-3.45,.08-6.9-.61-10.2,1.26-1.2,.68-3.42,.3-3.5-1.2-.29-5.41-4.9-5.8-8.06-6.11-6.67-.66-6.81-7.05-10.43-10.26-.34-.3-.28-1.47,.02-1.99,3.03-5.14-.6-4.6-3.78-4.55-3.17,.06-5-.87-3.3-4.5,1.09-2.34-.38-2.99-2.36-3.11-2.05-.13-3.13-.87-2.52-3.19,1-3.8-3.55-8.6-7.4-7.91-2.65,.47-4.79-1.28-4.06-3.7,.62-2.09,.86-4.63,2.65-6.04,3.56-2.8,4.89-6.95,7.06-10.6,.64-1.08,1.4-2.66,2.54-2.6,4.14,.23,6.6-2.29,9.54-4.58,3.29-2.56,9.03-1.13,12.86,2.41,1.53,1.41,2.78,3.11,4.97,3.66,1.71,.43,1.8,1.93,1.85,3.36,.05,1.53,.04,3.07,.13,4.6,.06,1.07,.71,1.79,1.68,2.21,1.56,.68,1.35-.9,1.93-1.5,.77-.79,1.6-2.07,2.47-2.13,5.02-.33,7.9-5.06,12.63-5.89,.8-.14,1.77-.41,2.28-.97,2.72-2.98,5.67-3.37,9.82-3.21,3.8,.14,7.31-3.73,9.99-6.93,1.86-2.22,3.65-3.17,6.47-2.43,1.63,.43,3.39,.27,4.92-.52,3.12-1.62,5.57-.5,7.17,2.1,1.81,2.94,4.09,5.62,5.09,9.06,.81,2.75,2.82,4.8,5.06,6.47,3.5,2.6,5.49,5.75,5.02,10.3-.15,1.46,.26,3.07,.73,4.5,2.27,6.84,.48,12.74-4.45,17.57-2.09,2.05-3.03,4.01-3.07,6.87-.09,5.94-4.45,9.13-10.11,7.52-2.19-.62-3.62-.29-2.95,2.13,1.2,4.35-1.32,5.14-4.6,5.37-1.67,.12-3.35,.02-5.93,.02Z"/>
      <path class="cls-1" d="M353.2,649.18c-3.35,1.03-4.95-.26-5.02-3.82-.02-1.06-.37-2.35-1.03-3.13-5.67-6.62-3.61-13.86-.67-20.38,1.51-3.34,5.16-5.8,6.47-9.76,.44-1.34,2.2-.67,3.19,.3,1.63,1.59,3.46,2.54,5.77,3.07,3.86,.89,2.96,4.43,2.05,6.5-1.79,4.06-1.97,8-1.37,12.21,.37,2.58-.2,4.93-1.98,7-.97,1.13-2.02,2.39-2.07,4.03-.11,3.54-2.01,4.65-5.34,3.96Z"/>
      <path class="cls-1" d="M416.28,650.52c0,2.09,.07,4.18-.02,6.27-.07,1.75,.29,3.97-2.2,4.32-2.26,.32-5.09,1.12-6.38-1.58-1.67-3.52-4.31-4.23-7.79-3.94-1.75,.15-3.49-.38-3.66-2.55-.21-2.74-1.93-3.24-4.23-3.57-2.31-.33-4.89-.98-5.39-3.72-.36-1.97,4.68-6.94,6.76-6.56,4.25,.77,8.6-2.72,12.79,.56,1.13,.89,2.61-.54,3.96-.8,4.18-.8,6.05,.64,6.18,4.89,.07,2.23,.01,4.46,.01,6.69h-.03Z"/>
      <path class="cls-1" d="M298.08,637.92c.09,5.38-1.02,7.05-5.7,7.36-3.14,.21-5.72,2.32-8.91,2-1.39-.14-2.89-.03-3.5-1.68-.55-1.49,.45-2.29,1.47-3.11,2.31-1.86,2.79-5.38,6.13-6.45,1.13-.36,1.15-2.01,.72-3.37-.48-1.49-.03-2.8,1.55-3.42,1.52-.6,2.99-.57,4.33,.55,2.72,2.26,4.66,4.86,3.92,8.12Z"/>
      <path class="cls-1" d="M360.14,597.47c0,.97-.02,1.94,0,2.91,.08,2.58-.1,5.21-2.63,6.55-2.04,1.08-3.17-1.13-4.64-1.99-2.48-1.46-3.55-3.72-2.4-6.34,.97-2.22-.22-4.04-.3-6.04-.12-2.72-.79-5.97,2.82-6.93,2.57-.69,6.81,3.39,7.07,6.44,.15,1.79,.03,3.6,.03,5.4,.02,0,.04,0,.05,0Z"/>
    </g>
  </g>
</svg>