<?xml version="1.0" encoding="UTF-8"?>
<svg id="Layer_1" data-name="Layer 1" xmlns="http://www.w3.org/2000/svg" viewBox="0 0 293.81 244.52">
  <g id="Eux965">
    <path d="M293.81,21.97c-3.9,27.05-7.9,57.63-12.81,88.07-5.67,35.17-12.12,70.21-18.27,105.31-.55,3.14-1.25,6.28-2.19,9.33-6.04,19.57-16.89,25.24-34.28,14.45-31.29-19.41-61.65-40.36-91.86-61.45-10.63-7.42-10.65-15.31-.66-25.21,21.64-21.45,43.98-42.2,65.98-63.29,5.5-5.27,11.13-10.48,16.03-16.28,2.22-2.62,2.81-6.6,4.15-9.96-3.57,.45-7.81-.19-10.61,1.52-13.66,8.36-27.03,17.23-40.34,26.15-22.97,15.38-45.92,30.8-68.69,46.47-14.02,9.65-28.75,13.54-45.46,8.24-14.49-4.6-29.3-8.22-43.58-13.37C6.57,130.27,.28,125.33,0,121.52c-.27-3.81,5.27-9.79,9.66-11.86,22.78-10.75,45.89-20.85,69.11-30.62C136.31,54.81,193.94,30.83,251.61,6.93c6.61-2.74,13.58-4.88,20.59-6.28,14.11-2.82,21.46,3.51,21.61,21.32Z"/>
  </g>
</svg>