<svg width="107" height="107" viewBox="0 0 107 107" fill="none" xmlns="http://www.w3.org/2000/svg">
<path d="M11.8889 107C8.61944 107 5.8206 105.836 3.49236 103.508C1.16412 101.179 0 98.3806 0 95.1111V11.8889C0 8.61944 1.16412 5.8206 3.49236 3.49236C5.8206 1.16412 8.61944 0 11.8889 0H95.1111C98.3806 0 101.179 1.16412 103.508 3.49236C105.836 5.8206 107 8.61944 107 11.8889V95.1111C107 98.3806 105.836 101.179 103.508 103.508C101.179 105.836 98.3806 107 95.1111 107H11.8889ZM17.8333 83.2222H89.1667L66.875 53.5L49.0417 77.2778L35.6667 59.4444L17.8333 83.2222Z" fill="black"/>
</svg>
