<svg width="187" height="30" viewBox="0 0 187 30" fill="none" xmlns="http://www.w3.org/2000/svg">
<path d="M0 7.50157V22.4984L12.531 30L25.062 22.4984V7.50157L12.531 0L0 7.50157ZM15.002 15.0283C15.002 15.0283 15.002 15.0094 15.002 15.0031C15.002 14.9969 15.002 14.9843 15.002 14.978L17.8616 13.2677V16.7386L15.002 15.0283ZM10.0661 14.978C10.0661 14.978 10.0661 14.9969 10.0661 15.0031C10.0661 15.0094 10.0661 15.022 10.0661 15.0283L7.20655 16.7386V13.2677L10.0661 14.978ZM11.2864 17.2039C11.2864 17.2039 11.3107 17.2165 11.3168 17.2228V20.6435L8.42687 18.9143L11.2864 17.2039ZM13.7756 12.8086C13.7756 12.8086 13.7513 12.7961 13.7453 12.7898V9.3691L16.6352 11.0983L13.7756 12.8086ZM11.3168 12.7898C11.3168 12.7898 11.2925 12.8023 11.2864 12.8086L3.64274 8.22469L11.3228 3.62817V12.7772L11.3168 12.7898ZM4.77806 11.8214V18.1974L2.42849 19.606V10.4192L4.77806 11.8277V11.8214ZM5.99838 20.3731L11.3168 23.5548V26.3781L3.63667 21.7816L5.99231 20.3731H5.99838ZM13.7453 17.2291C13.7453 17.2291 13.7696 17.2165 13.7756 17.2102L21.4193 21.7879L13.7392 26.3844V17.2354L13.7453 17.2291ZM20.284 18.1974V11.8214L22.6336 10.4129V19.5997L20.284 18.1912V18.1974ZM19.0637 9.64578L13.7453 6.46405V3.63446L21.4254 8.23098L19.0697 9.63949L19.0637 9.64578Z" fill="black"/>
<path d="M41.0112 2.47118L29.6519 27.1012H33.5375L36.5974 20.5177H45.6557L48.5759 27.1012H54.4164L43.4822 2.47118H41.0051H41.0112ZM37.6781 18.2729L41.2358 10.4758L44.6903 18.2729H37.6781Z" fill="black"/>
<path d="M68.5928 21.4672C68.2406 21.9451 67.8217 22.3664 67.336 22.7311C66.8564 23.0958 66.3282 23.3787 65.7636 23.5863C65.199 23.7938 64.6222 23.9007 64.0394 23.9007C63.3654 23.9007 62.7462 23.6931 62.1937 23.2844C61.6351 22.8757 61.1555 22.3224 60.7427 21.6307C60.3298 20.939 60.002 20.1341 59.7531 19.2224C59.5041 18.3106 59.3584 17.3486 59.3159 16.3425H71.4948C71.4948 15.261 71.2945 14.2486 70.8938 13.2991C70.4931 12.3496 69.9285 11.5259 69.1999 10.8279C68.4714 10.13 67.5971 9.57661 66.5771 9.17418C65.5572 8.77175 64.434 8.57053 63.2076 8.57053C61.8355 8.57053 60.5848 8.82205 59.4677 9.32509C58.3506 9.82813 57.3913 10.5324 56.5899 11.4316C55.7885 12.3307 55.1693 13.3997 54.7322 14.6259C54.295 15.852 54.0765 17.1851 54.0765 18.6187C54.0765 19.8197 54.3132 20.9516 54.7868 22.0268C55.2603 23.1021 55.9039 24.0453 56.7174 24.8564C57.531 25.6676 58.4902 26.3152 59.5891 26.7931C60.688 27.271 61.8598 27.5162 63.1105 27.5162C64.0818 27.5162 65.0472 27.3276 65.9943 26.9566C66.9475 26.5856 67.8217 26.07 68.6292 25.4161C69.4367 24.7621 70.1409 24.0013 70.742 23.1398C71.343 22.2783 71.7802 21.3477 72.0594 20.3605L69.3456 19.9141C69.1878 20.4737 68.9267 20.9893 68.5746 21.4735L68.5928 21.4672ZM59.7166 12.9595C59.8927 12.5131 60.1113 12.1358 60.3723 11.8214C60.6273 11.507 60.9187 11.2618 61.2405 11.092C61.5623 10.9222 61.8901 10.8342 62.218 10.8342C62.643 10.8342 63.0376 10.9222 63.4019 11.092C63.7661 11.2618 64.0879 11.5133 64.3611 11.8277C64.6343 12.1484 64.865 12.532 65.0411 12.9784C65.2172 13.4249 65.3325 13.9153 65.375 14.4435H59.3584C59.4131 13.8965 59.5345 13.3997 59.7106 12.9595H59.7166Z" fill="black"/>
<path d="M85.6529 8.69C85.0337 8.36303 84.3416 8.19954 83.5766 8.19954C82.8116 8.19954 82.0345 8.38818 81.3181 8.77175C80.6017 9.14902 79.952 9.65835 79.3692 10.2872L77.7725 8.50765L74.0447 10.5387V27.1075H79.3692V13.9153C79.5089 13.5821 79.6971 13.2739 79.946 12.9784C80.1949 12.6892 80.4681 12.4314 80.7777 12.2113C81.0874 11.9912 81.4213 11.8214 81.7734 11.6957C82.1255 11.5699 82.4898 11.507 82.8541 11.507C83.1152 11.507 83.358 11.5259 83.5644 11.5699C83.7769 11.6139 83.9773 11.6768 84.1716 11.7774C84.3658 11.8717 84.5662 11.9975 84.7665 12.1484C84.9669 12.3056 85.1855 12.4879 85.4283 12.7017L87.2679 9.76525C86.8125 9.37539 86.2722 9.01698 85.6529 8.69Z" fill="black"/>
<path d="M102.932 11.1926C102.07 10.3752 101.037 9.72752 99.8475 9.26221C98.6575 8.79061 97.3643 8.55795 95.9619 8.55795C94.5594 8.55795 93.2723 8.7969 92.0884 9.28107C90.9045 9.75896 89.8785 10.4318 89.0225 11.2807C88.1604 12.1358 87.4925 13.1545 87.0008 14.3303C86.5151 15.5125 86.2722 16.8015 86.2722 18.2037C86.2722 19.5116 86.5151 20.7189 87.0008 21.8445C87.4865 22.97 88.1664 23.9384 89.0285 24.7747C89.8907 25.6047 90.9167 26.2586 92.1067 26.7302C93.2906 27.2018 94.5837 27.4408 95.9801 27.4408C97.3765 27.4408 98.6697 27.183 99.8657 26.6674C101.056 26.1518 102.088 25.4538 102.95 24.5672C103.812 23.6806 104.492 22.6493 104.978 21.4609C105.463 20.2725 105.706 19.0086 105.706 17.6693C105.706 16.3299 105.457 15.1918 104.966 14.0851C104.474 12.9784 103.794 12.0101 102.932 11.1926ZM99.72 21.4986C99.5561 22.2218 99.3193 22.8631 99.0157 23.4102C98.7122 23.9635 98.354 24.4037 97.9411 24.7244C97.5283 25.0514 97.079 25.2148 96.5994 25.2148C95.8769 25.2148 95.2333 24.9885 94.6687 24.5294C94.1041 24.0704 93.6184 23.4542 93.2238 22.6808C92.8291 21.9011 92.5256 20.9956 92.3131 19.9518C92.1006 18.908 91.9974 17.8013 91.9974 16.6254C91.9974 15.8394 92.0884 15.0975 92.2645 14.3932C92.4406 13.689 92.6774 13.0664 92.9748 12.5257C93.2723 11.9849 93.6184 11.5573 94.007 11.2366C94.3955 10.916 94.8023 10.7588 95.2273 10.7588C96.0955 10.7588 96.8362 10.9851 97.4372 11.4379C98.0383 11.8906 98.53 12.5005 98.9064 13.2739C99.2829 14.0474 99.5561 14.9466 99.72 15.9715C99.8839 16.9964 99.9689 18.0905 99.9689 19.2538C99.9689 20.0398 99.8839 20.7881 99.72 21.5112V21.4986Z" fill="black"/>
<path d="M107.874 27.1012H113.593V15.0534H123.301V12.991H113.593V5.03668H124.612V2.96793H107.874V27.1012Z" fill="black"/>
<path d="M141.284 11.1926C140.422 10.3752 139.389 9.72752 138.199 9.26221C137.009 8.79061 135.716 8.55795 134.314 8.55795C132.911 8.55795 131.624 8.7969 130.44 9.28107C129.257 9.75896 128.23 10.4318 127.374 11.2807C126.512 12.1358 125.844 13.1545 125.353 14.3303C124.867 15.5125 124.624 16.8015 124.624 18.2037C124.624 19.5116 124.867 20.7189 125.353 21.8445C125.838 22.97 126.518 23.9384 127.381 24.7747C128.243 25.6047 129.269 26.2586 130.459 26.7302C131.643 27.2018 132.936 27.4408 134.332 27.4408C135.728 27.4408 137.022 27.183 138.218 26.6674C139.408 26.1518 140.44 25.4538 141.302 24.5672C142.164 23.6806 142.844 22.6493 143.33 21.4609C143.815 20.2725 144.058 19.0086 144.058 17.6693C144.058 16.3299 143.809 15.1918 143.317 14.0851C142.826 12.9784 142.146 12.0101 141.284 11.1926ZM138.072 21.4986C137.908 22.2218 137.671 22.8631 137.368 23.4102C137.064 23.9635 136.706 24.4037 136.293 24.7244C135.88 25.0514 135.431 25.2148 134.951 25.2148C134.229 25.2148 133.585 24.9885 133.021 24.5294C132.456 24.0704 131.97 23.4542 131.576 22.6808C131.181 21.9011 130.878 20.9956 130.665 19.9518C130.453 18.908 130.349 17.8013 130.349 16.6254C130.349 15.8394 130.44 15.0975 130.616 14.3932C130.793 13.689 131.029 13.0664 131.327 12.5257C131.624 11.9849 131.97 11.5573 132.359 11.2366C132.747 10.916 133.154 10.7588 133.579 10.7588C134.447 10.7588 135.188 10.9851 135.789 11.4379C136.39 11.8906 136.882 12.5005 137.258 13.2739C137.635 14.0474 137.908 14.9466 138.072 15.9715C138.236 16.9964 138.321 18.0905 138.321 19.2538C138.321 20.0398 138.236 20.7881 138.072 21.5112V21.4986Z" fill="black"/>
<path d="M155.594 8.19954C154.804 8.19954 154.051 8.38818 153.335 8.77175C152.619 9.14902 151.969 9.65835 151.386 10.2872L149.789 8.50765L146.062 10.5387V27.1075H151.386V13.9153C151.526 13.5821 151.714 13.2739 151.963 12.9784C152.212 12.6892 152.485 12.4314 152.795 12.2113C153.104 11.9912 153.438 11.8214 153.79 11.6957C154.143 11.5699 154.507 11.507 154.871 11.507C155.132 11.507 155.375 11.5259 155.581 11.5699C155.794 11.6139 155.994 11.6768 156.189 11.7774C156.383 11.8717 156.583 11.9975 156.783 12.1484C156.984 12.3056 157.202 12.4879 157.445 12.7017L159.285 9.76525C158.829 9.37539 158.289 9.01698 157.67 8.69C157.051 8.36303 156.359 8.19954 155.594 8.19954Z" fill="black"/>
<path d="M186.569 12.0667C186.271 11.3687 185.871 10.7588 185.367 10.2306C184.863 9.70237 184.274 9.29994 183.606 9.0044C182.938 8.70887 182.228 8.55795 181.481 8.55795C180.929 8.55795 180.376 8.61455 179.824 8.72773C179.265 8.84091 178.725 8.99183 178.191 9.19304C177.656 9.38797 177.152 9.62691 176.673 9.91616C176.193 10.1991 175.75 10.5072 175.349 10.8405C175.088 10.4821 174.773 10.1677 174.402 9.89101C174.038 9.61434 173.637 9.37539 173.206 9.18047C172.775 8.98554 172.332 8.83463 171.864 8.72773C171.403 8.62083 170.942 8.57053 170.48 8.57053C169.654 8.57053 168.792 8.74031 167.894 9.08615C166.995 9.43198 166.127 9.8973 165.289 10.4947V8.52023H163.693L159.965 10.5512V27.1201H165.289V13.7393C165.532 13.4752 165.799 13.2299 166.103 12.991C166.406 12.752 166.722 12.5445 167.05 12.3685C167.378 12.1924 167.706 12.0478 168.027 11.9409C168.355 11.834 168.659 11.7837 168.944 11.7837C169.187 11.7837 169.418 11.8654 169.648 12.0226C169.879 12.1798 170.079 12.3936 170.256 12.664C170.432 12.9281 170.571 13.2425 170.674 13.6072C170.778 13.9719 170.826 14.3492 170.826 14.7579V27.1075H176.102V13.7393C176.321 13.4752 176.57 13.2299 176.861 12.991C177.146 12.752 177.456 12.5445 177.778 12.3685C178.106 12.1924 178.434 12.0478 178.767 11.9409C179.101 11.834 179.423 11.7837 179.727 11.7837C179.988 11.7837 180.237 11.8654 180.467 12.0226C180.698 12.1798 180.898 12.3936 181.068 12.664C181.238 12.9281 181.372 13.2425 181.475 13.6072C181.572 13.9719 181.621 14.3492 181.621 14.7579V27.1075H187V14.324C187 13.5192 186.848 12.7646 186.551 12.0667H186.569Z" fill="black"/>
</svg>
