<?xml version="1.0" encoding="UTF-8"?>
<svg id="Layer_1" data-name="Layer 1" xmlns="http://www.w3.org/2000/svg" viewBox="0 0 1280 1280">
  <defs>
    <style>
      .cls-1 {
        fill: #ffcc01;
      }

      .cls-2 {
        fill: #2d3035;
      }
    </style>
  </defs>
  <rect class="cls-2" width="1280" height="1280" rx="223.71" ry="223.71"/>
  <g id="mzJRD9">
    <g>
      <path class="cls-1" d="M856.12,941.39c-48.09,0-96.18-.18-144.26,.15-9,.06-14.53-2.72-19.15-10.76-68.98-120.08-138.22-240.02-207.58-359.88-3.7-6.4-4.07-11.43-.25-18.02,49.24-84.85,98.21-169.86,147.27-254.81,6.45-11.17,12.69-11.18,19.08-.12,114,197.52,228,395.04,342.01,592.55,6.54,11.33,13.21,22.58,19.73,33.92,6.54,11.39,3.3,16.94-10.03,16.95-48.94,.06-97.88,.02-146.83,.02Z"/>
      <path class="cls-1" d="M424.95,941.38c-49.48,0-98.97,.01-148.45-.02-13.1,0-14.31-2.22-7.69-13.69,14.78-25.6,29.67-51.13,44.23-76.86,3.06-5.4,6.83-7.49,12.96-7.48,100.68,.12,201.35,.07,302.03,.11,9.89,0,11.4,2.62,6.48,11.19-15.15,26.37-30.54,52.6-45.48,79.09-3.71,6.58-8.95,7.74-15.63,7.72-49.48-.11-98.97-.06-148.45-.06Z"/>
    </g>
  </g>
</svg>