<svg width="103" height="27" viewBox="0 0 103 27" fill="none" xmlns="http://www.w3.org/2000/svg">
<path d="M62.9324 0.649414H68.4725C69.6823 4.68731 70.879 8.68344 72.0765 12.6796C72.1755 12.6633 72.2745 12.6471 72.3735 12.6309V0.702778H77.9191V26.3872C76.2613 26.3872 74.6207 26.4661 72.9993 26.3261C72.6396 26.2952 72.184 25.5396 72.0478 25.0431C71.0446 21.3803 70.1132 17.6981 69.154 14.0237C69.0403 13.5891 68.8949 13.1629 68.5212 12.7461V26.2658H62.9324V0.649414Z" fill="black"/>
<path d="M15.4546 10.8231H8.91036C8.91036 9.3103 8.91655 7.78749 8.90804 6.26467C8.9034 5.4441 9.01943 4.45415 7.8537 4.37295C6.59823 4.28555 6.69647 5.34897 6.69183 6.13165C6.66553 11.0729 6.67094 16.0141 6.69183 20.9561C6.69492 21.7148 6.69879 22.7581 7.80032 22.5361C8.26368 22.4426 8.81135 21.4781 8.85931 20.8733C9.00009 19.0945 8.90959 17.2972 8.90959 15.4193H15.682C15.4979 17.7867 15.5373 20.1069 15.0848 22.3281C14.6199 24.6065 12.9243 26.2268 10.6315 26.5446C8.5437 26.8339 6.30274 26.7743 4.24356 26.3366C1.71483 25.7991 0.31781 23.7743 0.221117 21.2608C0.0346923 16.4325 -0.111508 11.5849 0.115915 6.76351C0.32864 2.26467 3.14667 0.0372921 7.89083 0.00326269C12.2049 -0.0276731 15.0825 2.09839 15.4283 5.72484C15.5837 7.35129 15.4546 9.00481 15.4546 10.8231Z" fill="black"/>
<path d="M19.5294 0.669922H29.1647C30.3336 9.17882 31.4985 17.6606 32.6828 26.2801H26.1108C25.9808 24.8988 25.847 23.4843 25.7054 21.9762H23.3113C23.1582 23.4132 23.0081 24.8254 22.8503 26.3095H16.2891C17.3759 17.7117 18.4488 9.22599 19.5302 0.669922H19.5294ZM24.5327 5.87332C24.4391 5.88493 24.3455 5.8973 24.2512 5.9089C23.924 9.66683 23.596 13.4248 23.2649 17.2244H25.618C25.2498 13.3768 24.8909 9.62506 24.532 5.87332H24.5327Z" fill="black"/>
<path d="M88.6498 15.4041H95.2466C95.2257 17.896 95.7316 20.4343 94.6355 22.7947C94.1381 23.8658 93.3112 24.9122 92.3705 25.6276C89.8689 27.5294 84.7534 27.4103 82.2448 25.5456C80.3829 24.1613 79.7749 22.1682 79.7486 19.9826C79.7006 16.0174 79.8058 12.0491 79.7107 8.08546C79.5505 1.3546 84.3651 -0.552591 89.3669 0.130317C93.2021 0.653906 95.2319 3.1512 95.286 7.02668C95.3031 8.25251 95.2883 9.47912 95.2883 10.797H88.6529C88.6529 9.24478 88.683 7.72119 88.6405 6.19992C88.6181 5.39637 88.6753 4.37471 87.4926 4.37084C86.3152 4.36698 86.3361 5.3809 86.3322 6.18755C86.309 11.08 86.2835 15.9741 86.3701 20.865C86.3802 21.4567 86.9859 22.4652 87.4369 22.5387C88.6041 22.7274 88.6088 21.6199 88.6328 20.8225C88.6854 19.0793 88.649 17.3337 88.649 15.4041H88.6498Z" fill="black"/>
<path d="M33.9004 0.623913C37.2522 0.623913 40.5544 0.514091 43.8451 0.658716C46.5092 0.776272 48.3146 2.511 48.5575 5.30605C48.7509 7.53575 48.6426 9.82886 48.3526 12.0531C48.0516 14.3571 46.2934 15.6935 43.9325 15.7987C42.7598 15.8513 41.5817 15.808 40.2381 15.808V26.2566H33.9004V0.623913ZM40.3154 11.3664C42.5347 11.7353 43.0329 11.3486 43.0507 9.31146C43.0569 8.5953 43.0553 7.87991 43.0507 7.16374C43.0375 5.04464 42.4303 4.5953 40.3146 5.14441V11.3664H40.3154Z" fill="black"/>
<path d="M50.0088 0.644043H61.0821V5.69045H56.7278V10.4855H60.8671V15.4352H56.7518V21.2597H61.5408V26.2891H50.0096V0.644043H50.0088Z" fill="black"/>
<path d="M96.5894 7.56982H102.981V26.3046H96.5894V7.56982Z" fill="black"/>
<path d="M96.5957 0.657715H103V6.13954H96.5957V0.657715Z" fill="black"/>
</svg>
