<svg width="96" height="27" viewBox="0 0 96 27" fill="none" xmlns="http://www.w3.org/2000/svg">
<path d="M36.875 10.6777C50.0013 11.622 63.1051 13.4865 76.4702 10.09C75.95 10.9261 75.3459 11.0308 74.8265 11.2291C70.4243 12.9048 65.8489 13.6414 61.1575 13.9218C51.8016 14.4819 42.5366 13.3332 33.2396 12.6676C26.2709 12.1691 19.3005 11.3598 12.2938 12.2046C9.84682 12.4997 7.48382 13.0744 5.2221 14.0274C3.56195 14.7277 2.09914 15.7187 1.07951 17.2638C0.908989 17.5226 0.777424 17.9415 0.352431 17.7926C-0.0327455 17.6576 0.0425587 17.2473 0.0174573 16.9297C-0.105453 15.3422 0.424273 13.9928 1.49238 12.8234C3.06079 11.107 5.06197 10.2293 7.28388 9.75846C12.621 8.62803 18.01 9.00109 23.3877 9.25038C25.8814 9.36636 28.369 9.61738 30.855 9.8606C31.6565 9.93937 32.2399 9.6269 32.8267 9.17074C41.9454 2.08349 52.3582 -0.640439 63.7612 0.12472C67.4943 0.374869 71.0665 1.47846 74.6275 2.57687C77.3298 3.41041 79.987 4.38503 82.8062 4.83772C84.6715 5.13721 86.3161 4.79964 87.9156 3.87781C89.7861 2.80018 91.7942 2.22804 93.9754 2.40635C94.6255 2.45915 95.3127 2.41328 96 3.2295C92.9333 3.71768 90.7763 5.65741 88.126 7.31411C91.2558 8.58389 93.3358 10.5842 93.5764 14.0742C91.3891 11.2749 88.3302 9.94802 85.1398 8.85308C83.3022 8.22208 81.462 7.58849 79.5923 7.06309C74.9434 5.75609 70.3507 4.16085 65.5563 3.48744C55.4708 2.06965 46.1348 4.2803 37.5311 9.68056C37.2619 9.84935 36.9278 9.99822 36.875 10.6777Z" fill="black"/>
<path d="M12.1994 25.5265C11.2084 26.3392 9.95501 26.8205 8.59175 26.8205C5.65835 26.8759 3.3594 24.6583 3.41394 21.8634C3.37239 18.9854 5.68604 16.7548 8.70167 16.7964C10.0649 16.7964 11.2767 17.2785 12.2678 18.1042C12.3777 18.2003 12.4331 18.2834 12.4331 18.3795C12.4331 18.4487 12.4054 18.531 12.337 18.627L11.4421 19.8942C11.3598 20.018 11.2629 20.0734 11.1668 20.0734C11.0976 20.0734 11.0153 20.0319 10.8916 19.9635C10.1757 19.4537 9.44606 19.2061 8.68869 19.2061C7.20165 19.2061 6.11363 20.2803 6.11363 21.8227C6.11363 23.3651 7.20165 24.4255 8.68869 24.4255C9.52829 24.4255 10.2588 24.1364 10.9193 23.6404C11.0292 23.5582 11.1261 23.5166 11.2084 23.5166C11.2906 23.5166 11.3737 23.572 11.4559 23.6819L12.337 24.9491C12.3924 25.0314 12.4193 25.1145 12.4193 25.1828C12.4193 25.2928 12.3509 25.4027 12.1994 25.5265Z" fill="black"/>
<path d="M18.905 17.4845L23.27 26.173C23.3254 26.2691 23.3531 26.3522 23.3531 26.4206C23.3531 26.5582 23.2432 26.6275 23.0363 26.6275H21.081C20.7097 26.6275 20.6127 26.5582 20.4889 26.2691L20.0068 25.2642C19.9384 25.1127 19.8969 25.085 19.7454 25.085H16.4822C16.3308 25.085 16.2892 25.1127 16.2208 25.2642L15.7526 26.2691C15.6288 26.5582 15.505 26.6275 15.1744 26.6275H13.2883C13.0814 26.6275 12.9715 26.5582 12.9715 26.4206C12.9715 26.3384 12.9992 26.2553 13.0408 26.173L17.4058 17.4845C17.681 16.9478 17.8741 16.7687 18.1632 16.7687C18.4523 16.7687 18.6314 16.9478 18.9067 17.4845H18.905ZM18.9604 22.8138L18.1069 21.0099L17.2673 22.8138C17.2396 22.8553 17.2258 22.883 17.2258 22.9237C17.2258 22.993 17.2812 23.0198 17.3772 23.0198H18.8504C18.9465 23.0198 19.0019 22.9921 19.0019 22.9237C19.0019 22.8822 18.9881 22.8545 18.9604 22.8138Z" fill="black"/>
<path d="M28.0895 16.9894C30.8437 16.9894 32.2753 18.0636 32.2753 20.198C32.2753 21.5059 31.6833 22.4286 30.6507 22.98L32.7575 26.1886C32.8129 26.2709 32.8397 26.3539 32.8397 26.4223C32.8397 26.5461 32.7298 26.6292 32.5229 26.6292H30.4577C30.0863 26.6292 29.921 26.5193 29.7141 26.2025L28.2271 23.765C28.131 23.6136 28.0479 23.572 27.8688 23.572H27.0837C26.9045 23.572 26.8638 23.6136 26.8638 23.7927V26.2579C26.8638 26.5193 26.7539 26.6301 26.4778 26.6301H24.6186C24.3572 26.6301 24.2464 26.5201 24.2464 26.2579V17.3625C24.2464 17.1011 24.3563 16.9903 24.6186 16.9903H28.0886L28.0895 16.9894ZM27.938 19.2615H27.0846C26.9054 19.2615 26.8647 19.3169 26.8647 19.4822V21.19C26.8647 21.3553 26.9062 21.4107 27.0846 21.4107H27.938C29.0537 21.4107 29.5904 21.0662 29.5904 20.3088C29.5904 19.5515 29.0537 19.2615 27.938 19.2615Z" fill="black"/>
<path d="M38.3343 23.6811C39.0086 24.177 39.849 24.5077 40.6618 24.5077C41.4746 24.5077 41.8874 24.2463 41.8874 23.8196C41.8874 23.3651 41.5291 23.2137 40.2489 22.8969C38.2521 22.4148 37.2056 21.6158 37.2056 19.9228C37.2056 17.9398 38.748 16.7972 40.9232 16.7972C42.2311 16.7972 43.3883 17.2101 44.3933 18.0229C44.5032 18.1051 44.5586 18.2021 44.5586 18.312C44.5586 18.4081 44.5309 18.4912 44.4625 18.5872L43.6368 19.8544C43.5537 19.9782 43.4714 20.0336 43.3754 20.0336C43.2793 20.0336 43.1962 19.992 43.114 19.9237C42.3704 19.387 41.6546 19.1109 40.9518 19.1109C40.2905 19.1109 39.9053 19.3861 39.9053 19.786C39.9607 20.282 40.236 20.3781 41.42 20.681C43.5684 21.1908 44.5872 22.0166 44.5872 23.6551C44.5872 25.6243 43.0447 26.8222 40.6904 26.8222C39.2717 26.8222 38.0469 26.3678 37.0965 25.6104C36.9451 25.5005 36.8767 25.4036 36.8767 25.2798C36.8767 25.1837 36.9182 25.0868 37.0005 24.963L37.7855 23.765C37.8686 23.6274 37.9647 23.5582 38.0608 23.5582C38.1292 23.5582 38.2261 23.5997 38.336 23.6819L38.3343 23.6811Z" fill="black"/>
<path d="M52.269 16.9894C52.5304 16.9894 52.6542 17.1132 52.6542 17.3616V18.8902C52.6542 19.1654 52.5443 19.2624 52.269 19.2624H48.8544C48.6752 19.2624 48.6345 19.3178 48.6345 19.4831V20.4473C48.6345 20.6127 48.6761 20.6542 48.8544 20.6542H51.8146C52.076 20.6542 52.1859 20.778 52.1859 21.0394V22.5403C52.1859 22.8017 52.076 22.9125 51.8146 22.9125H48.8544C48.6752 22.9125 48.6345 22.9679 48.6345 23.1332V24.1381C48.6345 24.3034 48.6761 24.3588 48.8544 24.3588H52.2829C52.5581 24.3588 52.6681 24.4549 52.6681 24.731V26.2596C52.6681 26.5072 52.5443 26.6318 52.2829 26.6318H46.3893C46.1279 26.6318 46.0171 26.5219 46.0171 26.2596V17.3642C46.0171 17.1028 46.127 16.992 46.3893 16.992H52.269V16.9894Z" fill="black"/>
<path d="M53.7292 16.9894H55.6846C56.0291 16.9894 56.139 17.0448 56.2905 17.4161L57.8736 21.4367L59.6497 17.5944C59.8843 17.1123 59.9942 16.9885 60.2002 16.9885C60.4062 16.9885 60.5032 17.1123 60.7369 17.5944L62.4992 21.409L64.0693 17.4153C64.2208 17.0708 64.3168 16.9885 64.689 16.9885H66.6443C66.8642 16.9885 66.975 17.0578 66.975 17.2092C66.975 17.2785 66.9611 17.3607 66.9196 17.443L63.2704 26.1453C63.0358 26.7097 62.912 26.8612 62.706 26.8612C62.5269 26.8612 62.4308 26.7374 62.1555 26.186L60.1864 21.9863L58.2172 26.186C57.9558 26.7227 57.8459 26.8612 57.6667 26.8612C57.4598 26.8612 57.3361 26.7097 57.1024 26.1453L53.4531 17.443C53.4116 17.333 53.3839 17.2499 53.3839 17.1954C53.3839 17.0578 53.4938 16.9885 53.7284 16.9885L53.7292 16.9894Z" fill="black"/>
<path d="M70.1698 16.9894C70.4451 16.9894 70.5558 17.0993 70.5558 17.3616V26.257C70.5558 26.5184 70.4459 26.6292 70.1698 26.6292H68.3106C68.0492 26.6292 67.9384 26.5193 67.9384 26.257V17.3616C67.9384 17.1002 68.0483 16.9894 68.3106 16.9894H70.1698Z" fill="black"/>
<path d="M73.5853 17.2646L78.4879 21.6574V17.3607C78.4879 17.0993 78.5978 16.9885 78.8592 16.9885H80.7323C80.9798 16.9885 81.1045 17.1123 81.1045 17.3607V26.2561C81.1045 26.6283 80.9946 26.8205 80.76 26.8205C80.5531 26.8205 80.3748 26.6967 80.0026 26.3522L75.1009 21.9595V26.2561C75.1009 26.5175 74.991 26.6283 74.7149 26.6283H72.8556C72.5942 26.6283 72.4835 26.5184 72.4835 26.2561V17.3607C72.4835 16.9885 72.5934 16.7964 72.8279 16.7964C73.0071 16.7964 73.2131 16.934 73.5853 17.2646Z" fill="black"/>
<path d="M91.5138 21.7119C91.7752 21.7119 91.8851 21.8357 91.8851 22.0971V25.3057C91.8851 25.5948 91.8029 25.7325 91.5406 25.8839C90.3288 26.4898 89.0893 26.8205 87.7122 26.8205C84.7788 26.862 82.5067 24.8098 82.5482 21.9049C82.5067 18.8893 84.7927 16.7687 87.836 16.7964C89.1992 16.7964 90.4664 17.2092 91.4575 17.8844C91.6228 17.9943 91.7051 18.1051 91.7051 18.2289C91.7051 18.3111 91.6635 18.4081 91.5951 18.5041L90.8239 19.7159C90.7278 19.8674 90.6171 19.9496 90.5071 19.9496C90.424 19.9496 90.3279 19.9219 90.2319 19.8536C89.5022 19.4268 88.7448 19.2061 87.8637 19.2061C86.2252 19.2061 85.2471 20.308 85.2471 21.8366C85.2471 23.3652 86.2797 24.4532 87.7529 24.4532C88.2766 24.4532 88.7033 24.3839 89.0469 24.2463C89.2122 24.1909 89.2676 24.1225 89.2676 23.9433V22.098C89.2676 21.8366 89.3776 21.7128 89.639 21.7128H91.512L91.5138 21.7119Z" fill="black"/>
</svg>
