<svg width="379" height="90" viewBox="0 0 379 90" fill="none" xmlns="http://www.w3.org/2000/svg">
<path d="M7.76679 17.8437C2.94823 20.7354 0 25.9431 0 31.5628V58.4372C0 64.0569 2.94823 69.2646 7.7668 72.1563L29.2668 85.059C34.3344 88.1002 40.6657 88.1002 45.7332 85.059L67.2332 72.1563C72.0518 69.2646 75 64.0569 75 58.4372V31.5628C75 25.9431 72.0518 20.7354 67.2332 17.8437L45.7332 4.94095C40.6656 1.89978 34.3343 1.89979 29.2668 4.94096L7.76679 17.8437ZM44.9593 45.1237C44.9192 45.0996 44.8946 45.0562 44.8946 45.0094C44.8946 44.9626 44.9192 44.9192 44.9593 44.8952L48.9867 42.4803C50.9523 41.3018 53.452 42.7177 53.452 45.0094C53.452 47.3012 50.9522 48.717 48.9867 47.5385L44.9593 45.1237ZM30.0588 44.8952C30.099 44.9192 30.1235 44.9626 30.1235 45.0094C30.1235 45.0562 30.099 45.0996 30.0588 45.1237L26.0314 47.5385C24.0659 48.717 21.5661 47.3012 21.5661 45.0094C21.5661 42.7177 24.0659 41.3018 26.0314 42.4804L30.0588 44.8952ZM33.722 51.6439C33.7552 51.6239 33.7908 51.6191 33.8241 51.6389C33.8489 51.6537 33.8663 51.6845 33.8663 51.7134V56.7433C33.8663 59.0263 31.3759 60.4366 29.4181 59.2622C27.5161 58.1213 27.5163 55.3648 29.4185 54.2242L33.722 51.6439ZM41.278 38.3939C41.2448 38.4138 41.2092 38.4186 41.1759 38.3988C41.1512 38.384 41.1337 38.3532 41.1337 38.3243V33.2944C41.1337 31.0114 43.6241 29.6012 45.5819 30.7755C47.4839 31.9164 47.4837 34.673 45.5815 35.8135L41.278 38.3939ZM33.8771 38.3469C33.8701 38.3615 33.8585 38.3733 33.8444 38.3811C33.8425 38.3821 33.8405 38.3832 33.8385 38.3844C33.7999 38.406 33.7485 38.4097 33.7106 38.3869L22.0482 31.3756C16.9967 28.3387 17 21.0149 22.0541 17.9825C27.2606 14.8587 33.8844 18.6091 33.8844 24.6808V38.3146C33.8844 38.3258 33.8819 38.3368 33.8771 38.3469ZM14.2987 35.4643V52.6035C14.2987 53.8375 13.6517 54.9812 12.594 55.6168C10.2508 57.025 7.26744 55.3372 7.26744 52.6035V35.3592C7.26744 33.5549 9.2365 32.4409 10.7831 33.3704L14.2825 35.4734C14.2896 35.4777 14.2987 35.4726 14.2987 35.4643ZM17.9415 61.1193C17.9474 61.1193 17.9533 61.1209 17.9584 61.1239L32.1027 69.6067C33.1968 70.2629 33.8663 71.4451 33.8663 72.7209C33.8663 75.5435 30.7871 77.2869 28.3667 75.8347L16.9275 68.9714C14.1903 67.3291 14.1911 63.3619 16.929 61.7207L17.9246 61.1239C17.9297 61.1209 17.9356 61.1193 17.9415 61.1193ZM41.1285 51.6927C41.1319 51.6891 41.136 51.6861 41.1404 51.6837C41.143 51.6824 41.1462 51.6806 41.1499 51.6786C41.1956 51.6537 41.2562 51.6497 41.3008 51.6765L52.9438 58.6666C57.9972 61.7004 57.9962 69.0251 52.9419 72.0576C47.7371 75.1804 41.1156 71.4312 41.1156 65.3615V51.7248C41.1156 51.7128 41.1202 51.7013 41.1285 51.6927ZM60.7013 54.5923V37.4531C60.7013 36.2191 61.3483 35.0754 62.406 34.4398C64.7492 33.0316 67.7326 34.7193 67.7326 37.4531V54.6974C67.7326 56.5017 65.7635 57.6157 64.2169 56.6862L60.7175 54.5832C60.7104 54.5789 60.7013 54.584 60.7013 54.5923ZM57.065 28.9212C57.0559 28.9306 57.0414 28.9325 57.0302 28.9258L42.9013 20.4522C41.8047 19.7946 41.1337 18.6097 41.1337 17.3311C41.1337 14.5023 44.2198 12.7549 46.6455 14.2103L57.5893 20.7765C60.5453 22.55 60.5444 26.8344 57.5877 28.6067L57.0708 28.9165C57.0687 28.9178 57.0667 28.9194 57.065 28.9212Z" fill="url(#paint0_linear_368_59)" fill-opacity="0.9"/>
<g clip-path="url(#clip0_368_59)">
<path d="M92.1428 73.1291V19.4438H113.846C129.032 19.4438 136.855 28.6473 136.855 44.8286V47.5143C136.855 63.9257 129.032 73.1291 113.846 73.1291H92.1428ZM101.731 66.302H113.235C123.129 66.302 127.195 59.6295 127.195 46.8201V45.3642C127.195 33.1696 123.129 26.2671 113.16 26.2671H101.731V66.302Z" fill="black"/>
<path d="M139.156 54.1074V53.4171C139.156 42.6031 144.372 33.8599 158.098 33.8599C171.824 33.8599 176.89 42.6785 176.89 53.4171V56.4836H147.978V56.7137C147.978 63.9217 152.35 66.7621 158.102 66.7621C162.398 66.7621 166.92 64.6913 167.69 60.7045L167.845 59.7088H176.358L176.128 60.8592C174.747 67.7618 169.455 73.6686 158.106 73.6686C144.376 73.6686 139.163 64.9254 139.163 54.1114L139.156 54.1074ZM168.067 49.9658V49.6604C167.837 44.5231 164.155 40.7624 158.019 40.7624C151.882 40.7624 148.2 44.5192 147.97 49.6604V49.9658H168.063H168.067Z" fill="black"/>
<path d="M179.19 53.8019V53.7265C179.19 41.6867 186.248 33.8638 198.133 33.8638C208.332 33.8638 215.084 39.5405 216.155 48.3592C216.23 48.8193 216.31 49.585 216.31 49.8944H207.566V49.2795C207.261 43.9122 203.579 40.7663 198.288 40.7663C191.921 40.7663 188.009 46.1337 188.009 53.5757V53.9605C188.009 61.478 191.921 66.77 198.288 66.77C203.579 66.77 207.566 63.9336 207.566 59.1771V58.5623H216.31L216.155 60.0975C214.85 68.3806 208.026 73.6725 198.133 73.6725C186.248 73.6725 179.19 65.8496 179.19 53.8098V53.8019Z" fill="black"/>
<path d="M218.611 54.032V53.4964C218.611 42.6824 224.668 33.8638 238.323 33.8638C251.977 33.8638 257.955 42.7617 257.955 53.4964V54.1113C257.955 64.9253 251.898 73.6686 238.323 73.6686C224.748 73.6686 218.611 64.8499 218.611 54.0359V54.032ZM249.133 54.1867V53.3417C249.133 45.5188 244.836 40.7624 238.319 40.7624C231.801 40.7624 227.429 45.5188 227.429 53.3417V54.1867C227.429 62.0096 231.646 66.766 238.319 66.766C244.991 66.766 249.133 62.0096 249.133 54.1867Z" fill="black"/>
<path d="M299.827 73.1291H262.093V19.4438H271.681V66.302H299.827V73.1291Z" fill="black"/>
<path d="M300.211 63.1601V62.5452C300.211 52.4214 313.632 49.585 326.366 48.2799V47.665C326.366 42.5277 323.68 40.7624 317.853 40.7624C311.565 40.7624 308.495 43.0633 308.495 47.665V48.2799H300.442V47.5896C300.442 39.0011 307.959 33.8599 317.853 33.8599C329.202 33.8599 335.184 39.5366 335.184 49.8111V73.1251H326.441V67.4484C322.684 71.8954 318.158 73.6607 313.172 73.6607C307.495 73.6607 300.211 70.2848 300.211 63.1521V63.1601ZM326.441 54.5715V54.4168C316.317 55.1824 308.495 57.1025 308.495 62.0096V62.5452C308.495 65.691 311.791 66.7621 314.627 66.6113C320.764 66.3059 326.437 62.085 326.437 54.5715H326.441Z" fill="black"/>
<path d="M378.591 52.8817V54.9525C378.591 65.1516 372.304 74.0496 361.18 74.0496C355.888 74.0496 352.132 71.8241 349.755 68.222L349.525 68.2974V73.1292H340.782V17.1431H349.525V39.5367H349.601C351.977 36.0101 355.813 33.7846 361.18 33.7846C372.149 33.7846 378.591 42.4525 378.591 52.8817ZM369.848 53.4966C369.848 45.8284 365.631 40.6118 359.724 40.6118C353.207 40.6118 350.061 45.3682 349.525 51.2711V56.4083C350.061 62.0058 353.207 67.2224 359.724 67.2224C365.631 67.2224 369.848 62.8507 369.848 55.0278V53.4926V53.4966Z" fill="black"/>
</g>
<defs>
<linearGradient id="paint0_linear_368_59" x1="0" y1="44.9967" x2="75" y2="44.9967" gradientUnits="userSpaceOnUse">
<stop stop-color="#223A60"/>
<stop offset="0.48" stop-color="#7D8CA9"/>
<stop offset="1" stop-color="#EDE8F0"/>
</linearGradient>
<clipPath id="clip0_368_59">
<rect width="286.449" height="56.9065" fill="white" transform="translate(92.1428 17.1431)"/>
</clipPath>
</defs>
</svg>
