<svg width="202" height="27" viewBox="0 0 202 27" fill="none" xmlns="http://www.w3.org/2000/svg">
<path d="M12.2085 25.1905L12.2054 25.739C12.1998 26.7065 11.1214 27.3078 10.259 26.8244L1.37544 21.8445C0.524406 21.3674 0 20.4852 0 19.5303V7.46729C0 6.51276 0.524061 5.63089 1.37476 5.15379L10.2559 0.170886C11.1211 -0.314581 12.2026 0.292085 12.2026 1.26302V1.81411C12.2026 2.26476 11.9552 2.68092 11.5538 2.90624L4.46158 6.88507C3.61089 7.36217 3.08683 8.24438 3.08683 9.19857V17.7964C3.08683 18.7509 3.61089 19.6331 4.46193 20.1102L11.5593 24.0907C11.9631 24.3174 12.2109 24.7369 12.2085 25.1899V25.1905ZM25.6259 5.15346L16.7507 0.171556C15.8855 -0.314247 14.8036 0.292755 14.8036 1.26369V1.81478C14.8036 2.26509 15.051 2.68159 15.452 2.90691L22.2845 6.74278C23.0087 7.14923 23.0091 8.16503 22.2852 8.57215L16.3679 11.8988C15.3997 12.4432 14.8033 13.4476 14.8033 14.5347V24.458V25.7369C14.8033 26.7082 15.8855 27.3149 16.7507 26.8287L25.6266 21.8428C26.4766 21.3654 27 20.4838 27 19.53V7.46696C27 6.51276 26.4763 5.63089 25.6259 5.15346Z" fill="url(#paint0_linear_52_379)"/>
<path d="M61 6.72412H57V26.7241H61V6.72412Z" fill="#221F20"/>
<path d="M55 0.724121H50.4526V4.50182C50.4526 5.31529 49.5293 5.83569 48.7752 5.44341C47.0648 4.55397 45.1006 4.04774 43.0105 4.04604C36.4125 4.04094 31.0144 9.12586 31 15.3604C30.9856 21.6341 36.364 26.7241 42.9997 26.7241C49.6355 26.7241 54.9994 21.6477 54.9994 15.3854V0.724121H55ZM43.0687 22.43C38.8998 22.4634 35.5133 19.2634 35.5487 15.3241C35.5829 11.4994 38.8908 8.37305 42.9391 8.34074C47.108 8.30729 50.4946 11.5073 50.4592 15.4466C50.425 19.2713 47.1164 22.3971 43.0687 22.43Z" fill="#221F20"/>
<path d="M126 6.72412C121.029 6.72412 117 10.7782 117 15.7791V26.7241H121.417V15.7878C121.417 13.2452 123.438 11.1376 125.965 11.1188C128.512 11.1 130.583 13.1713 130.583 15.7298V26.7241H135V15.7791C135 10.7782 130.971 6.72412 126 6.72412H126Z" fill="#221F20"/>
<path d="M193 6.72412C188.029 6.72412 184 10.7782 184 15.7791V26.7241H188.417V15.7878C188.417 13.2452 190.438 11.1376 192.965 11.1188C195.512 11.1 197.583 13.1713 197.583 15.7298V26.7241H202V15.7791C202 10.7782 197.971 6.72412 193 6.72412H193Z" fill="#221F20"/>
<path d="M85.254 6.72455C82.9325 6.70168 80.8152 7.59634 79.2264 9.07668C78.8146 9.46069 78.1849 9.46069 77.7731 9.07668C76.1842 7.59634 74.0669 6.70168 71.746 6.72455C66.8892 6.77262 63 10.8801 63 15.8593V26.7241H67.3353V15.7878C67.3353 13.2451 69.3193 11.1374 71.7998 11.1187C74.2997 11.0999 76.3324 13.1712 76.3324 15.7297V26.7241H80.6676V15.7878C80.6676 13.2451 82.6517 11.1374 85.1322 11.1187C87.6321 11.0999 89.6647 13.1712 89.6647 15.7297V26.7241H94V15.8593C94 10.8801 90.1114 6.77321 85.254 6.72455Z" fill="#221F20"/>
<path d="M101.989 18.9461H115.752C115.917 18.2173 116.003 17.4587 116 16.6795C115.976 11.2037 111.38 6.67354 105.904 6.72455C100.44 6.77555 96.0235 11.2096 96.0001 16.6801C95.9766 22.0721 100.284 26.5471 105.673 26.7189C110.17 26.862 114.027 24.0355 115.432 20.0524H110.727C109.681 21.5362 107.953 22.5054 105.999 22.5054C104.045 22.5054 102.427 21.5955 101.372 20.1896C100.987 19.6772 101.349 18.9461 101.989 18.9461H101.989ZM101.373 13.2586C102.427 11.8527 104.108 10.9428 106 10.9428C107.892 10.9428 109.573 11.8527 110.627 13.2586C111.012 13.771 110.651 14.5021 110.011 14.5021H101.989C101.349 14.5021 100.988 13.771 101.373 13.2586Z" fill="#221F20"/>
<path d="M142.191 6.75691L155 6.72412V11.295L142.313 11.3273C141.554 11.329 141.04 11.6815 140.768 12.383C140.705 12.5283 140.674 12.7039 140.674 12.9095C140.676 13.5987 141.041 14.0876 141.767 14.3757C141.967 14.436 142.183 14.4653 142.415 14.4647L148.858 14.4483C150.91 14.443 152.629 15.37 154.012 17.2286C154.666 18.2188 154.996 19.3302 154.998 20.5634C155.003 22.7645 153.981 24.5265 151.932 25.8493C150.996 26.4079 149.897 26.689 148.633 26.6919L136.032 26.7241V22.1713L148.512 22.1397C149.396 22.1374 149.969 21.7855 150.231 21.0834C150.294 20.8778 150.324 20.7022 150.324 20.5569C150.323 19.904 149.98 19.4215 149.294 19.1083C149.083 19.0362 148.894 19.0005 148.726 19.0011L142.331 19.0175C139.888 19.0239 137.996 17.916 136.654 15.6944C136.22 14.8131 136.002 13.9248 136 13.0295V12.7935C135.995 10.7985 136.923 9.12728 138.783 7.78048C139.823 7.11294 140.959 6.77155 142.191 6.75633V6.75691Z" fill="#221F20"/>
<path d="M59 5.72412C60.6569 5.72412 62 4.60483 62 3.22412C62 1.84341 60.6569 0.724121 59 0.724121C57.3431 0.724121 56 1.84341 56 3.22412C56 4.60483 57.3431 5.72412 59 5.72412Z" fill="#221F20"/>
<path d="M162 6.72412H157V26.7241H162V6.72412Z" fill="#221F20"/>
<path d="M159.5 5.72412C160.881 5.72412 162 4.60483 162 3.22412C162 1.84341 160.881 0.724121 159.5 0.724121C158.119 0.724121 157 1.84341 157 3.22412C157 4.60483 158.119 5.72412 159.5 5.72412Z" fill="#221F20"/>
<path d="M172.5 6.72412C167.253 6.72412 163 11.2015 163 16.7241C163 22.2468 167.253 26.7241 172.5 26.7241C177.747 26.7241 182 22.2468 182 16.7241C182 11.2015 177.747 6.72412 172.5 6.72412ZM172.5 22.2802C169.585 22.2802 167.222 19.7927 167.222 16.7241C167.222 13.6556 169.585 11.168 172.5 11.168C175.415 11.168 177.778 13.6556 177.778 16.7241C177.778 19.7927 175.415 22.2802 172.5 22.2802Z" fill="#221F20"/>
<defs>
<linearGradient id="paint0_linear_52_379" x1="13.5002" y1="0.000135359" x2="13.5002" y2="26.9995" gradientUnits="userSpaceOnUse">
<stop stop-color="#86B4C7"/>
<stop offset="0.13" stop-color="#A2C7CE"/>
<stop offset="0.39" stop-color="#CFC4A8"/>
<stop offset="0.6" stop-color="#FF8C00"/>
<stop offset="1" stop-color="#FF4900"/>
</linearGradient>
</defs>
</svg>
