<svg width="163" height="28" viewBox="0 0 163 28" fill="none" xmlns="http://www.w3.org/2000/svg">
<path d="M24.0869 3.89393C23.0024 5.1176 22.0029 6.24619 20.9763 7.40566C19.4715 6.24496 17.9728 5.31023 16.1661 5.02005C13.1084 4.52737 10.3244 4.95461 8.00247 7.25007C5.60539 9.62086 5.1765 12.5164 5.82723 15.6046C6.98078 21.0735 13.0591 23.7727 17.7966 20.913C19.2718 20.0227 20.3305 18.7163 21.0034 17.1209C21.4249 16.1208 21.2363 15.8355 20.1604 15.8071C18.414 15.7602 16.6677 15.6985 14.9213 15.696C14.1535 15.696 13.7752 15.475 13.8479 14.6341C13.9083 13.9253 13.9144 13.203 13.8479 12.4967C13.7604 11.5619 14.1794 11.3335 15.0335 11.3422C18.3315 11.3767 21.6307 11.3582 24.9299 11.3619C26.6491 11.3631 26.6233 11.3656 26.6639 13.103C26.7194 15.491 26.569 17.8161 25.4253 20.0005C23.4078 23.8555 20.2873 26.1781 16.0145 26.8844C12.5612 27.4549 9.19792 27.1128 6.20681 25.1631C2.29015 22.6083 0.178998 18.9608 0.0113877 14.2229C-0.100763 11.0396 0.606651 8.11442 2.52555 5.53372C4.6823 2.63444 7.43308 0.713118 11.0885 0.196978C15.9073 -0.484624 20.169 0.725466 24.0869 3.89516V3.89393Z" fill="#112250"/>
<path d="M162.992 14.3019C162.973 21.6773 158.082 27.9587 149.693 28.0006C142.42 28.0377 136.241 22.3935 136.144 14.744C136.048 7.09326 142.006 0.946492 149.112 0.831657C156.268 0.715587 163.271 6.39684 162.992 14.3019ZM141.416 14.1698C141.416 14.5588 141.383 14.9502 141.42 15.3355C141.736 18.6113 143.231 21.1414 146.255 22.5552C149.154 23.9098 151.952 23.4221 154.51 21.6353C157.056 19.8572 158.39 15.6454 157.576 12.3596C156.924 9.72829 155.727 7.51432 153.051 6.4524C146.38 3.80502 140.892 9.22943 141.414 14.1698H141.416Z" fill="#112250"/>
<path d="M115.766 17.4161C115.766 14.66 115.812 11.904 115.756 9.14917C115.658 4.27301 119.318 1.14159 123.749 0.866231C127.106 0.657553 129.854 1.73305 131.783 4.57923C133.677 7.37479 133.074 11.2903 130.452 13.4154C129.572 14.1278 129.541 14.3501 130.527 14.8267C132.509 15.7861 133.211 17.4333 133.221 19.4954C133.233 21.9267 133.205 24.358 133.23 26.7893C133.236 27.4635 132.989 27.7166 132.32 27.6969C131.254 27.666 130.183 27.6561 129.118 27.7117C128.326 27.7525 128.028 27.4845 128.045 26.6671C128.088 24.626 128.06 22.5824 128.055 20.5401C128.049 18.0236 127.012 16.9814 124.52 16.979C122.993 16.9777 122.986 16.9777 122.993 15.4293C122.997 14.5884 122.749 13.5623 123.14 12.9659C123.469 12.4646 124.556 12.4559 125.313 12.2473C126.955 11.7916 127.812 10.4976 127.647 8.69848C127.496 7.06486 126.227 5.82266 124.585 5.70412C122.367 5.5436 120.856 6.91545 120.849 9.16646C120.828 14.9045 120.836 20.6426 120.83 26.3806C120.83 27.245 120.405 27.6796 119.553 27.6845C118.648 27.6895 117.739 27.6574 116.836 27.708C116.046 27.7512 115.75 27.466 115.759 26.6535C115.792 23.5739 115.772 20.4944 115.772 17.4136H115.766V17.4161Z" fill="#112250"/>
<path d="M90.8735 16.3702C90.8735 19.4498 90.8538 22.5293 90.8871 25.6089C90.8957 26.4424 90.6271 26.798 89.7717 26.7498C88.9016 26.7004 88.0254 26.7362 87.1516 26.7387C85.7368 26.7424 85.7306 26.7436 85.7294 25.2792C85.7257 19.8338 85.7294 14.3871 85.7171 8.94173C85.7158 8.39719 85.7269 7.80943 85.5396 7.31552C84.6042 4.85088 81.3185 4.00259 79.2209 5.6041C78.0452 6.50179 77.8603 7.7551 77.8554 9.07262C77.8357 13.7389 77.8431 18.4039 77.8418 23.0702C77.8418 24.0098 77.8283 24.9507 77.8504 25.8904C77.8652 26.5103 77.6126 26.7622 76.9853 26.7461C75.8219 26.7165 74.656 26.7226 73.4913 26.7424C72.9035 26.7523 72.6977 26.4967 72.6989 25.9237C72.7137 19.6029 72.6286 13.2795 72.7543 6.96113C72.8172 3.81613 74.8421 1.78615 77.6138 0.78844C80.7762 -0.348798 84.0545 -0.327806 87.1134 1.32557C89.5006 2.61469 90.8994 4.58664 90.8785 7.42171C90.8563 10.4037 90.8735 13.3857 90.8735 16.369V16.3702Z" fill="#112250"/>
<path d="M67.4327 16.2368C67.4327 19.3164 67.4056 22.396 67.4487 25.4755C67.4623 26.4164 67.2207 26.8548 66.1954 26.7572C65.2969 26.672 64.3812 26.6893 63.4803 26.7535C62.6127 26.8153 62.3699 26.4745 62.3736 25.636C62.4032 20.2227 62.3909 14.8082 62.3896 9.3949C62.3896 8.03293 62.1444 6.77839 61.1325 5.73746C59.4897 4.04704 55.5965 4.74346 54.7843 6.9636C54.5144 7.70324 54.4306 8.5466 54.4269 9.34304C54.3998 14.6921 54.417 20.0412 54.4183 25.3903C54.4183 26.2925 53.975 26.7436 53.0885 26.7436C52.1826 26.7436 51.2731 26.6868 50.3722 26.7486C49.5329 26.8066 49.2803 26.3967 49.2778 25.6657C49.2729 24.1444 49.2618 22.6232 49.2605 21.1007C49.2581 16.8888 49.3862 12.6708 49.2248 8.4651C49.0412 3.65191 52.4316 0.81437 56.0401 0.299465C59.0534 -0.130241 61.9928 -0.0129361 64.5994 1.83924C66.464 3.1654 67.4377 4.96942 67.429 7.28835C67.4167 10.2704 67.4266 13.2536 67.4266 16.2356H67.4327V16.2368Z" fill="#112250"/>
<path d="M40.2663 11.4051C41.6244 11.4051 42.9838 11.4274 44.3419 11.3952C44.9889 11.3804 45.2983 11.5731 45.2638 12.2757C45.2206 13.1486 45.2194 14.0266 45.2613 14.8996C45.2958 15.6182 45.021 15.8676 44.3062 15.859C41.654 15.8306 39.0006 15.8429 36.3484 15.8491C34.9705 15.8528 34.8238 16.0269 35.2909 17.3148C36.2843 20.056 38.5002 22.1762 41.7686 22.0737C42.6412 22.0465 43.5162 22.091 44.3887 22.065C44.9988 22.0465 45.2773 22.2675 45.2576 22.9096C45.2268 23.9135 45.2921 24.9223 45.2219 25.9225C45.2021 26.2077 44.8719 26.6979 44.6623 26.7091C41.8031 26.8733 38.9636 26.7794 36.2966 25.5447C34.2939 24.6173 32.7595 23.1603 31.7304 21.213C29.6587 17.2914 29.0129 13.1894 30.4684 8.91333C32.0903 4.14335 36.0464 0.224143 41.8881 0.346387C42.7607 0.364908 43.6345 0.35503 44.5083 0.343917C45.0395 0.336508 45.2638 0.571118 45.2539 1.10825C45.2354 2.17757 45.2317 3.24813 45.2613 4.31622C45.2798 4.97066 44.968 5.16575 44.374 5.146C43.6308 5.1213 42.8839 5.17193 42.142 5.12995C39.1189 4.95955 36.4309 7.09449 35.3538 9.86288C34.8916 11.0495 35.1357 11.4002 36.3829 11.4039C37.6769 11.4076 38.971 11.4039 40.265 11.4039L40.2663 11.4051Z" fill="#112250"/>
<path d="M106.273 12.3386C107.469 12.3386 108.671 12.4041 109.862 12.3189C110.872 12.246 111.189 12.6276 111.104 13.5907C111.039 14.3303 111.067 15.0811 111.104 15.8257C111.141 16.5616 110.824 16.7555 110.118 16.748C107.371 16.7184 104.624 16.732 101.878 16.7641C100.902 16.7752 100.738 17.0283 101.056 17.9717C101.965 20.6747 104.387 23.1566 107.596 22.9232C108.465 22.8602 109.343 22.938 110.215 22.9084C110.818 22.8886 111.115 23.0825 111.095 23.7345C111.063 24.8026 111.124 25.8756 111.05 26.94C111.031 27.203 110.659 27.645 110.43 27.6586C107.191 27.8426 104.032 27.5475 101.158 25.8398C99.4981 24.8532 98.3088 23.4344 97.4116 21.7428C95.521 18.1804 94.9603 14.4044 96.0769 10.5445C97.3327 6.20174 99.9331 2.85053 104.476 1.67255C106.402 1.17369 108.513 1.37249 110.542 1.30952C110.722 1.30335 111.064 1.69601 111.074 1.91456C111.125 3.07897 111.082 4.24707 111.096 5.41271C111.104 6.00541 110.766 6.0832 110.286 6.09678C108.866 6.13753 107.429 6.08691 106.032 6.29682C103.803 6.63145 101.44 9.1393 101.042 11.3533C100.898 12.1596 101.399 12.3176 102.004 12.325C103.426 12.3448 104.849 12.3312 106.273 12.3312V12.3386Z" fill="#112250"/>
</svg>
