<svg width="208" height="28" viewBox="0 0 208 28" fill="none" xmlns="http://www.w3.org/2000/svg">
<path d="M0 0.539917H6.82826L13.9083 20.6752H13.9806L20.9883 0.539917H27.8179V27.1476H22.8939V7.19184H22.7854L15.9933 27.1476H11.8246L4.99632 7.19184H4.92401V27.1476H0V0.539917Z" fill="black"/>
<path d="M44.8423 0.539917H40.9963L29.927 27.1476H35.3545L38.1935 20.28H47.7174L50.5564 27.1476H55.9839L44.8423 0.539917ZM39.8473 15.6417L42.8657 7.47989H42.9381L45.9565 15.6417H39.8473Z" fill="black"/>
<path d="M64.9094 13.5919H82.2686V14.1667C82.2686 21.7537 75.6198 27.6862 68.1809 27.6862C60.742 27.6862 53.8762 21.8247 53.8762 13.8424C53.8762 5.86012 60.525 0 68.0363 0C74.7212 0 79.5729 4.53108 80.9388 8.34136H75.0453C73.895 6.57958 71.4511 4.60209 67.9291 4.60209C61.9271 4.60209 58.8002 9.70792 58.8002 13.8786C58.8002 18.0493 61.8548 23.0841 68.1809 23.0841C71.4511 23.0841 74.5056 21.2862 76.0523 18.194H64.9107V13.5919H64.9094Z" fill="black"/>
<path d="M84.3911 0.539917H89.9967L100.995 19.8834H101.066V0.539917H105.99V27.1476H100.492L89.3861 7.80277H89.3138V27.1476H84.3911V0.539917Z" fill="black"/>
<path d="M122.216 0C114.669 0 108.308 6.04099 108.308 13.9148C108.308 21.7886 114.562 27.6862 122.216 27.6862C129.871 27.6862 136.125 21.538 136.125 13.9148C136.125 6.29153 129.764 0 122.216 0ZM122.216 23.0841C117.149 23.0841 113.232 18.8049 113.232 13.8786C113.232 8.9523 117.221 4.60209 122.216 4.60209C127.211 4.60209 131.201 8.77277 131.201 13.8786C131.201 18.9844 127.284 23.0841 122.216 23.0841Z" fill="black"/>
<path d="M138.871 0.539917H143.795V22.5442H151.917V27.1476H138.871V0.539917Z" fill="black"/>
<path d="M159.416 0.539917H154.492V27.1476H159.416V0.539917Z" fill="black"/>
<path d="M176.17 0.539917H172.324L161.255 27.1476H166.682L169.521 20.28H179.045L181.884 27.1476H187.312L176.17 0.539917ZM171.175 15.6417L174.194 7.47989H174.266L177.284 15.6417H171.175Z" fill="black"/>
<path d="M191.04 0.998306L189.14 6.94015L195.612 9.01404L184.187 14.9023L187.041 20.4492L198.466 14.5596L196.387 21.0584L202.324 22.9609L207.647 6.31892L191.04 0.998306Z" fill="url(#paint0_linear_48_1287)"/>
<defs>
<linearGradient id="paint0_linear_48_1287" x1="184.187" y1="11.9796" x2="207.647" y2="11.9796" gradientUnits="userSpaceOnUse">
<stop stop-color="#362F53"/>
<stop offset="0.54" stop-color="#BBB5D3"/>
<stop offset="1" stop-color="#E9E8F2"/>
</linearGradient>
</defs>
</svg>
