<svg width="189" height="26" viewBox="0 0 189 26" fill="none" xmlns="http://www.w3.org/2000/svg">
<path d="M45.0343 4.65407C44.5037 5.21657 43.9799 5.78584 43.4424 6.34157C37.5467 12.4409 31.651 18.5381 25.753 24.6329C24.3289 26.1058 23.635 26.1126 22.211 24.6442C16.1747 18.4206 10.1429 12.1902 4.11335 5.95979C3.69611 5.52832 3.30609 5.06973 2.62581 4.71055C2.6054 5.09007 2.56912 5.46958 2.56912 5.8491C2.56459 11.6842 2.56685 17.5192 2.56459 23.3543C2.56459 24.8814 2.21084 25.5004 1.33782 25.532C0.428515 25.5636 0.00674403 24.8882 0.00674403 23.3249C0.00220885 16.209 -0.0159325 9.09306 0.0362221 1.97938C0.0407573 1.36267 0.362755 0.515536 0.829879 0.185718C1.55551 -0.324822 2.19043 0.319 2.74146 0.890534C9.60092 7.99517 16.4717 15.0885 23.3425 22.1819C23.5217 22.3671 23.7257 22.532 24.0069 22.7873C24.8731 21.9017 25.7121 21.0546 26.5421 20.1962C32.6238 13.9116 38.7009 7.61792 44.7939 1.34234C45.422 0.693999 45.9685 -0.322563 47.1205 0.145055C48.218 0.590083 47.9096 1.65634 47.9096 2.52155C47.9232 9.48613 47.9187 16.4507 47.9164 23.4153C47.9164 23.7157 48.0162 24.0953 47.8733 24.3008C47.5604 24.7504 47.1794 25.3355 46.7191 25.4552C46.0184 25.6359 45.5173 25.1073 45.4175 24.3709C45.3472 23.8513 45.3427 23.3227 45.3427 22.7963C45.3381 17.1872 45.3381 11.578 45.3381 5.96883C45.3381 5.57801 45.3381 5.18494 45.3381 4.79413C45.2361 4.74669 45.1363 4.70151 45.0343 4.65407Z" fill="black"/>
<path d="M78.0323 0.0863131C80.6378 0.0863131 83.2455 0.0546867 85.851 0.0930902C91.0574 0.167638 95.2365 4.34232 95.3046 9.5313C95.3363 11.901 95.3975 14.2775 95.2773 16.6427C95.0415 21.2308 91.4111 25.1615 86.6242 25.4145C80.9779 25.7127 75.2885 25.7217 69.6422 25.4213C64.5719 25.1502 61.1819 21.4816 60.8168 16.3445C60.6308 13.7308 60.6694 11.0674 60.9415 8.46052C61.4426 3.6375 65.4427 0.169897 70.3293 0.0908312C72.8962 0.0479097 75.4654 0.0840541 78.0346 0.0840541V0.0885721L78.0323 0.0863131ZM78.0028 2.53058C78.0028 2.53058 78.0028 2.53284 78.0028 2.5351C75.547 2.5351 73.0935 2.49218 70.64 2.54639C67.3882 2.61868 64.1864 4.91385 63.6399 8.08778C63.1751 10.7896 63.1093 13.6337 63.3633 16.3694C63.7238 20.2662 67.0889 23.099 71.0209 23.1532C75.7035 23.2187 80.3883 23.2187 85.0687 23.1532C89.173 23.0968 92.6288 19.8912 92.8533 15.9424C92.9735 13.8415 92.9667 11.7248 92.8397 9.62392C92.6107 5.78358 89.3363 2.65709 85.4791 2.54413C82.9893 2.47185 80.4949 2.53058 78.0028 2.53058Z" fill="black"/>
<path d="M171.253 0.079756C173.706 0.079756 176.165 0.131714 178.616 0.0684609C183.845 -0.0648217 188.246 4.21603 188.382 9.19719C188.45 11.6753 188.537 14.1716 188.335 16.6384C187.908 21.859 183.976 25.4735 178.72 25.548C173.697 25.6181 168.675 25.6293 163.652 25.5412C157.913 25.4396 153.926 21.2943 153.908 15.5654C153.901 13.5707 153.892 11.5759 153.913 9.58348C153.967 4.38772 158.094 0.206262 163.321 0.0978282C165.963 0.0436116 168.607 0.0887921 171.251 0.0887921V0.082015L171.253 0.079756ZM171.108 2.51725C171.108 2.51725 171.108 2.52402 171.108 2.52628C168.691 2.52628 166.273 2.46981 163.858 2.53758C159.668 2.65505 156.421 5.98711 156.348 10.1799C156.319 11.8719 156.332 13.5661 156.348 15.2582C156.389 19.5865 159.666 23.045 164.028 23.1399C168.784 23.2438 173.545 23.2303 178.301 23.1399C182.31 23.0631 185.623 19.9818 185.947 16.0443C186.119 13.9524 186.133 11.8244 185.963 9.73258C185.62 5.50142 182.389 2.58953 178.133 2.5195C175.793 2.4811 173.45 2.51273 171.11 2.51273L171.108 2.51725Z" fill="black"/>
<path d="M110.731 3.82957C110.731 4.58634 110.731 5.03137 110.731 5.47414C110.731 11.4606 110.731 17.4447 110.722 23.4311C110.722 23.8039 110.801 24.2602 110.622 24.5335C110.364 24.9266 109.887 25.453 109.531 25.4349C109.096 25.4123 108.606 24.947 108.298 24.5516C108.103 24.3009 108.171 23.8287 108.169 23.456C108.162 16.3423 108.162 9.22639 108.164 2.11271C108.164 1.36045 108.073 0.404886 108.955 0.20835C109.525 0.0818449 110.35 0.391332 110.856 0.773107C119.706 7.44853 128.525 14.1669 137.353 20.8739C137.645 21.0953 137.953 21.2964 138.432 21.633C138.459 21.0772 138.495 20.6887 138.495 20.3024C138.498 14.2414 138.495 8.18046 138.498 2.11949C138.498 1.74449 138.382 1.26557 138.566 1.01482C138.863 0.612716 139.366 0.113471 139.779 0.11573C140.173 0.117989 140.652 0.65112 140.929 1.06C141.108 1.32657 141.008 1.78967 141.008 2.16467C141.01 9.27834 141.01 16.3943 141.008 23.508C141.008 24.215 141.151 25.139 140.287 25.3174C139.706 25.4372 138.885 25.1638 138.384 24.7866C129.652 18.2015 120.953 11.5735 112.248 4.95457C111.835 4.64056 111.414 4.33559 110.731 3.82957Z" fill="black"/>
</svg>
