<svg width="89" height="33" viewBox="0 0 89 33" fill="none" xmlns="http://www.w3.org/2000/svg">
<path d="M36.5077 23.2884C36.5251 23.4136 36.5891 23.5388 36.5088 23.663C35.702 24.9176 34.7453 25.9882 33.1774 26.1589C31.6724 26.3229 30.6919 25.515 30.3346 23.8924C29.7711 21.3344 31.1751 17.7301 33.3066 16.2616C34.1275 15.6963 34.9799 15.376 35.9463 15.8958C36.0082 15.9291 36.0831 15.9446 36.1526 15.9523C37.1516 16.0676 37.4502 16.3735 37.6782 17.3887C37.9942 18.7963 37.9095 20.1717 37.4741 21.5372C37.4231 21.6979 37.2526 21.8985 37.4459 22.0382C37.5946 22.1457 37.7944 22.0548 37.9627 21.9772C38.4698 21.7422 38.8129 21.3721 38.9378 20.8013C39.1691 19.7384 39.4047 18.6766 39.6523 17.617C39.7185 17.3311 39.8087 17.0463 39.927 16.7792C40.3407 15.8404 41.0856 15.3926 42.0727 15.6032C42.9674 15.7938 43.7927 15.8337 44.7232 15.6132C46.7114 15.1421 48.2153 16.757 47.8266 18.8085C47.5899 20.0576 47.2771 21.2923 47.0111 22.5358C46.9536 22.804 46.9416 23.0844 46.9297 23.3593C46.921 23.5433 46.9351 23.7472 47.136 23.8314C47.3542 23.9223 47.5356 23.8015 47.6615 23.6408C48.0524 23.1443 48.3022 22.5868 48.3771 21.9395C48.6084 19.9434 49.2708 18.1368 50.7291 16.7204C51.3871 16.082 52.1721 15.6708 53.1027 15.6298C53.7825 15.5999 54.4112 15.7761 54.8737 16.3026C55.1528 16.6195 55.256 16.5187 55.4644 16.2361C56.0541 15.4359 57.6188 15.2142 58.444 15.7706C58.7079 15.9479 58.5721 16.1662 58.5276 16.3635C58.1269 18.1247 57.7154 19.8836 57.3104 21.6436C57.1866 22.1822 57.0574 22.7231 57.053 23.2795C57.0509 23.4956 57.0367 23.755 57.3017 23.8359C57.5438 23.9101 57.7176 23.7428 57.8566 23.5688C58.267 23.0567 58.5081 22.4604 58.6156 21.8154C58.8599 20.3568 59.3007 18.9481 59.6395 17.5129C59.7372 17.0983 59.9099 16.7115 60.1542 16.3602C60.7525 15.5012 62.3835 15.2463 63.2076 15.8792C63.4324 16.051 63.2967 16.2472 63.2565 16.43C62.8949 18.0493 62.5149 19.6641 62.1674 21.2867C62.0208 21.9706 61.8916 22.6666 61.9991 23.3726C62.0968 24.0143 62.4443 24.1418 62.9329 23.7206C63.2988 23.4047 63.5616 23.0013 63.7397 22.5546C64.0861 21.6802 64.4303 20.8301 64.2891 19.8171C64.1338 18.7021 64.262 17.5683 64.5248 16.4644C64.6496 15.9413 64.8201 15.4381 65.1524 15.0058C65.3761 14.7154 65.6247 14.4849 66.0221 14.588C66.4684 14.7033 66.526 15.0812 66.539 15.458C66.5575 16.0155 66.4445 16.5597 66.3218 17.0995C66.1144 18.016 65.8994 18.9315 65.691 19.8481C65.654 20.0099 65.6095 20.1751 65.6106 20.338C65.6106 20.6483 65.4456 21.085 65.8984 21.1659C66.3316 21.2435 66.5987 20.9232 66.7041 20.5076C66.8409 19.9722 66.9581 19.4314 67.0743 18.8905C67.5423 16.7082 68.0429 14.5348 68.6401 12.3857C68.79 11.8482 68.752 11.815 68.208 11.9158C65.5379 12.4112 62.8667 12.8978 60.1423 12.9233C57.7143 12.9454 55.3352 12.6894 53.1516 11.4703C51.4414 10.5149 50.5835 8.7593 50.9473 6.88844C51.1764 5.71029 51.9409 4.90897 52.8606 4.23622C52.9637 4.16085 53.0701 4.08992 53.1831 4.03118C53.536 3.84609 53.8856 3.53908 54.2494 3.51802C54.7337 3.49031 54.6815 4.09878 54.89 4.4069C55.8564 5.83775 57.2876 6.43292 58.8621 6.76985C61.0663 7.24311 63.2934 7.0824 65.5118 6.93056C67.2969 6.80864 69.0777 6.61247 70.8607 6.4562C71.1365 6.43181 71.3862 6.36975 71.6305 6.22677C72.167 5.9109 72.7663 5.75462 73.3527 5.9641C73.9966 6.19463 74.6297 6.1381 75.2757 6.09821C77.6603 5.9508 80.0459 5.82445 82.4195 6.2301C83.4772 6.41075 84.5 6.70557 85.4675 7.18991C87.6501 8.28272 88.7359 10.117 88.952 12.5453C89.1507 14.7742 88.6404 16.9088 88.1365 19.0457C87.8911 20.0853 87.6609 21.1282 87.4123 22.1678C87.1832 23.1288 86.7901 24.0065 86.1842 24.7924C85.1266 26.1622 82.5933 26.5612 81.6062 24.6095C81.4293 24.2604 81.3098 24.4986 81.1784 24.6305C80.4737 25.3388 79.6691 25.8342 78.6506 25.8696C77.7569 25.9018 77.0055 25.6225 76.5332 24.799C76.379 24.5297 76.2856 24.5186 76.0782 24.7558C75.4397 25.4839 74.6764 25.9594 73.673 25.9494C72.1974 25.9339 71.155 24.8345 71.2016 23.3271C71.2201 22.7286 71.3841 22.1623 71.5274 21.5915C71.6392 21.1437 71.7424 20.6938 71.75 20.2294C71.7543 19.9722 71.7587 19.6752 71.4807 19.5555C71.1973 19.4336 70.9475 19.591 70.7488 19.7927C70.2048 20.3446 69.9182 21.0351 69.7564 21.7877C69.5012 22.9769 69.22 24.1617 69.0006 25.3576C68.9116 25.8464 68.7053 26.0248 68.2438 25.9406C68.0657 25.9084 67.8844 25.8996 67.7074 25.863C66.2665 25.5671 65.8289 24.901 66.0949 23.4158C66.1014 23.3792 66.1177 23.3438 66.1166 23.3072C66.1079 23.0578 66.3729 22.7198 66.1546 22.5923C65.9005 22.4438 65.5292 22.4693 65.2099 22.4815C64.9895 22.4904 65.0069 22.7608 64.9417 22.9171C64.3554 24.3047 63.4205 25.3221 62.011 25.8541C60.7721 26.3207 59.7296 26.0038 59.0466 24.8855C58.8208 24.5153 58.7231 24.5352 58.4701 24.85C57.8435 25.628 56.9987 25.9639 56.0247 25.9395C55.1886 25.9184 54.4969 25.5516 54.0908 24.809C53.8291 24.3313 53.6815 24.4255 53.3829 24.7403C52.9387 25.2091 52.4045 25.5538 51.7812 25.74C50.7877 26.037 49.438 25.8985 48.8462 24.7292C48.6725 24.3867 48.5563 24.6139 48.4281 24.7602C47.8798 25.382 47.2359 25.8519 46.4009 25.935C44.467 26.1268 43.1791 24.5895 43.6091 22.6123C43.8524 21.4962 44.1271 20.3868 44.3725 19.2707C44.4474 18.9304 44.4919 18.5791 44.5061 18.2311C44.5158 17.9972 44.4865 17.7312 44.2161 17.6292C43.9718 17.5361 43.7503 17.6292 43.5624 17.7922C43.0325 18.2532 42.7318 18.855 42.5798 19.5367C42.1422 21.4973 41.697 23.4557 41.2908 25.423C41.1985 25.8708 41.0042 26.0104 40.597 25.9428C40.3299 25.8985 40.0562 25.8818 39.7935 25.8176C38.649 25.5383 38.2613 24.9907 38.3406 23.796C38.3504 23.6519 38.3591 23.5067 38.3732 23.2651C37.7151 23.5543 37.1082 23.3792 36.4968 23.2917C36.4892 23.2684 36.4805 23.2462 36.4729 23.223C36.4697 23.234 36.4621 23.2507 36.4653 23.2551C36.4762 23.2673 36.4925 23.275 36.5066 23.2839L36.5077 23.2884ZM82.8398 16.5874C83.6878 15.4735 84.5283 15.233 85.8237 15.6586C86.1918 15.7794 86.2939 15.9457 86.195 16.3391C85.8812 17.5904 85.5902 18.8473 85.3198 20.1086C85.1005 21.1349 84.7661 22.1379 84.7085 23.1964C84.6955 23.428 84.6553 23.7151 84.9257 23.827C85.221 23.9489 85.3958 23.704 85.5511 23.5056C85.8953 23.0656 86.0941 22.5502 86.2222 22.0082C86.5056 20.8068 86.7836 19.6032 87.0659 18.4006C87.4199 16.8911 87.7565 15.3838 87.649 13.8099C87.5165 11.877 86.5099 10.5614 84.6944 10.0283C83.994 9.82218 83.2752 9.74349 82.5499 9.7313C79.1772 9.6781 75.9045 10.4041 72.6198 11.048C72.446 11.0824 72.3168 11.1555 72.2647 11.3406C71.8249 12.9078 71.4058 14.4794 71.029 16.225C71.7402 15.5334 72.3201 14.926 73.0107 14.4494C73.7892 13.9108 74.5938 13.8698 75.4234 14.2876C76.0163 14.5858 76.367 15.2818 76.2639 15.9479C76.1813 16.4821 75.9131 16.8656 75.3691 17.0086C75.1444 17.0684 75.0184 17.0695 74.9478 16.7758C74.7991 16.1574 74.1823 15.8005 73.6177 16.0366C72.9021 16.3369 72.345 16.8778 71.8162 17.4475C72.37 17.402 72.8923 17.3976 73.3961 17.5849C74.7133 18.0737 75.3366 19.1765 75.1161 20.5962C74.9967 21.3621 74.6742 22.0847 74.6308 22.8628C74.6123 23.203 74.4136 23.704 74.8762 23.8259C75.2736 23.9312 75.4473 23.4646 75.6536 23.1675C76.0793 22.558 75.9816 21.8231 76.1292 21.146C76.5342 19.2862 77.2194 17.5783 78.7668 16.389C80.1914 15.294 81.553 15.3727 82.8409 16.5863L82.8398 16.5874ZM79.6322 22.1157C79.7006 22.5591 79.5225 23.152 80.0513 23.2828C80.5812 23.4136 80.7582 22.8295 81.009 22.4638C81.0188 22.4482 81.0275 22.4316 81.0362 22.4161C81.4651 21.5394 81.8082 20.6295 82.0189 19.6719C82.1264 19.1853 82.1948 18.6932 82.1199 18.1912C82.0764 17.9052 81.9961 17.6303 81.7029 17.535C81.4075 17.4397 81.1795 17.6215 80.9927 17.8332C80.8733 17.9684 80.7615 18.1191 80.6789 18.2809C80.0589 19.4901 79.719 20.7791 79.6322 22.1157ZM51.9886 22.0581C51.9973 22.2399 51.9984 22.4061 52.0158 22.5713C52.0462 22.8628 52.0397 23.2052 52.3839 23.3005C52.7172 23.3936 52.942 23.1288 53.0864 22.8871C53.9052 21.5172 54.4796 20.0587 54.4839 18.4228C54.4839 18.0748 54.4644 17.678 54.0594 17.5494C53.6304 17.4131 53.4068 17.7589 53.1787 18.0449C53.0886 18.1579 53.0082 18.2854 52.9485 18.4173C52.4186 19.5788 52.0549 20.7846 51.9886 22.0581ZM34.6845 19.2119C34.1829 20.4122 33.9168 21.6547 34.0613 22.9636C34.0873 23.1952 34.1818 23.4612 34.4674 23.4856C34.8539 23.5189 35.032 23.1919 35.2112 22.9259C35.373 22.6854 35.6727 22.4549 35.4349 22.0969C34.855 21.2258 34.6921 20.2471 34.6845 19.2119Z" fill="black"/>
<path d="M17.1307 8.41904C15.7604 7.87485 14.377 7.53903 12.9893 7.20542C11.6667 6.88844 10.342 6.83081 9.00205 6.97932C7.70663 7.12341 6.61752 7.71525 5.7369 8.67506C4.53595 9.98511 4.69123 11.7872 6.09306 13.023C6.44053 13.33 6.82926 13.5872 7.2788 13.9274C5.47195 14.4993 3.85512 14.3009 2.41637 13.2126C-1.17236 10.4972 -0.676124 4.7937 3.32197 2.55821C6.23205 0.931186 9.1671 1.00544 12.1119 2.46068C13.8569 3.32296 15.4802 4.40136 17.1199 5.44872C17.8995 5.94747 17.7377 5.92974 18.2394 5.24701C18.8312 4.44236 19.4761 3.69535 20.4426 3.34623C21.4828 2.9694 22.4742 3.08577 23.2571 3.89707C24.1333 4.8059 24.5264 5.92752 24.1257 7.19656C23.7631 8.34478 22.8857 8.879 21.7543 9.00646C21.1418 9.07517 20.5196 9.07406 19.917 8.94217C19.5337 8.85905 19.3686 8.97875 19.2275 9.33563C18.387 11.4714 17.9017 13.7046 17.4825 15.9523C16.894 19.1055 16.6497 22.2809 17.0645 25.4817C17.1763 26.3496 17.4228 27.1775 17.8702 27.9311C18.1634 28.4254 18.5184 28.8632 19.0244 29.1536C20.0744 29.7543 20.9735 29.6025 21.7206 28.646C22.6903 27.4036 23.3059 25.9639 23.8315 24.4865C25.4527 19.9368 26.6199 15.2508 27.8328 10.5781C28.2726 8.88454 28.7156 7.18769 29.3335 5.55069C30.0827 3.56568 31.136 1.79679 32.9961 0.689572C33.9907 0.0977255 35.0722 -0.17603 36.2275 0.121001C36.7292 0.249567 37.1722 0.495615 37.4513 0.969978C37.5534 1.14399 37.6022 1.30691 37.3449 1.40555C35.9007 1.96526 35.07 3.1822 34.2893 4.43239C33.2425 6.10707 32.5899 7.9746 31.8516 9.7978C30.3781 13.4331 29.2662 17.2003 27.9251 20.8833C26.8415 23.8591 25.6535 26.794 24.0248 29.516C23.5991 30.2265 23.0562 30.8449 22.4981 31.4534C20.0755 34.0901 16.7094 32.9596 15.1805 31.0034C14.3184 29.9006 13.9155 28.6116 13.6093 27.275C12.8286 23.8636 13.0805 20.4521 13.656 17.0485C14.0903 14.4783 14.6876 11.9524 15.7528 9.56394C16.0242 8.95547 16.2251 8.27828 17.134 8.41904H17.1307Z" fill="black"/>
<path d="M42.9305 9.42429C43.3985 9.44092 43.8274 9.65482 44.1901 10.0161C44.5951 10.4207 44.9002 10.9006 45.1619 11.4082C45.2922 11.6598 45.4127 11.6975 45.5778 11.4459C45.8905 10.9715 46.2477 10.5215 46.5127 10.0217C46.9079 9.27467 47.8157 9.43316 48.249 10.086C48.3749 10.2766 48.3673 10.465 48.2468 10.6534C47.5334 11.7773 46.7114 12.8047 45.6125 13.5584C44.8546 14.0782 44.4072 13.9163 43.9729 13.0796C43.4148 12.0045 42.8979 10.895 41.8859 10.1558C41.6861 10.0095 41.7599 9.88425 41.9272 9.77342C42.2192 9.58057 42.5255 9.42762 42.9294 9.42208L42.9305 9.42429Z" fill="black"/>
<path d="M36.5077 23.2884C36.4936 23.2795 36.4773 23.2717 36.4664 23.2595C36.4621 23.2551 36.4708 23.2385 36.474 23.2274C36.4827 23.2507 36.4903 23.2728 36.4979 23.2961L36.5077 23.2884Z" fill="#090605"/>
</svg>
