<svg width="207" height="28" viewBox="0 0 207 28" fill="none" xmlns="http://www.w3.org/2000/svg">
<path d="M18.6659 12.7378C18.155 13.8561 17.6952 14.8242 17.2671 15.8046C15.6565 19.4897 14.0557 23.1772 12.4476 26.8623C12.3527 27.0791 12.2968 27.3722 11.9757 27.3402C11.6521 27.3082 11.5986 26.9929 11.5013 26.7613C10.1097 23.426 8.73027 20.0858 7.33626 16.7505C5.76222 12.9841 4.19791 9.21038 2.58251 5.46125C2.04729 4.21729 1.17634 3.17286 0.30539 2.14567C0.178883 1.99541 -0.0692654 1.86732 0.0183163 1.64808C0.105898 1.43131 0.371076 1.4929 0.565702 1.4929C2.79417 1.48797 5.02264 1.50029 7.25111 1.48304C7.80336 1.48058 7.98339 1.6333 7.78146 2.20479C7.61117 2.6802 7.71334 3.18025 7.89824 3.64581C10.0781 9.06258 12.2603 14.4794 14.445 19.8961C14.4742 19.9651 14.5277 20.0267 14.6274 20.1843C14.9753 19.3862 15.2892 18.662 15.6103 17.9403C16.3985 16.1692 17.1795 14.3931 17.992 12.6319C18.2572 12.0579 18.2961 11.5431 18.0699 10.9322C17.3352 8.95912 16.5226 7.02051 15.6906 5.0893C15.2186 3.99067 14.569 3.00782 13.7662 2.12842C13.664 2.01511 13.4718 1.91658 13.5594 1.72937C13.6421 1.55201 13.8416 1.59882 13.9973 1.59882C16.1455 1.59635 18.2913 1.59882 20.4395 1.59635C20.8068 1.59635 21.0939 1.68503 21.0866 2.13089C21.0477 4.30597 21.9819 6.22487 22.685 8.1955C23.9549 11.755 25.2735 15.2947 26.5702 18.8443C26.6261 18.997 26.6772 19.1547 26.7356 19.3049C26.7721 19.3985 26.8062 19.5094 26.9254 19.5168C27.0494 19.5217 27.0859 19.4109 27.1224 19.3172C27.3171 18.8443 27.5165 18.3763 27.6966 17.8984C28.9179 14.6715 30.1513 11.447 31.3507 8.21028C32.0611 6.29138 32.2533 4.31336 31.7935 2.30332C31.6767 1.78849 31.7886 1.58157 32.3287 1.59389C33.3213 1.6136 34.3139 1.59389 35.3065 1.60374C35.5765 1.60621 35.9512 1.64562 35.6008 2.03728C33.3894 4.5252 32.37 7.62156 31.2169 10.6588C29.1611 16.0805 27.0592 21.4874 24.9767 26.8968C24.8988 27.0988 24.8599 27.3722 24.5582 27.3402C24.2614 27.3082 24.2103 27.0298 24.1252 26.8056C22.6996 23.0885 21.2788 19.3665 19.8458 15.6519C19.4882 14.7257 19.099 13.8143 18.6611 12.7403L18.6659 12.7378Z" fill="black"/>
<path d="M179.176 20.7287C179.914 19.0758 180.605 17.5338 181.291 15.9893C181.522 15.4671 181.724 14.9301 181.977 14.4178C182.782 12.7871 182.707 11.1785 181.882 9.58972C181.59 9.03056 181.269 8.48371 180.938 7.94671C180.751 7.64373 180.709 7.45898 181.152 7.45898C183.198 7.45898 185.244 7.45898 187.29 7.45652C187.628 7.45652 187.75 7.55258 187.545 7.88513C186.67 9.30891 186.777 10.7228 187.487 12.1983C188.72 14.7528 189.883 17.3417 191.083 19.9109C191.163 20.0833 191.187 20.3765 191.423 20.3617C191.647 20.3469 191.65 20.0538 191.735 19.8789C193.102 16.9919 194.036 13.9473 195 10.9076C195.909 8.028 196.766 5.11147 198.532 2.59891C199.371 1.40668 200.379 0.428755 201.867 0.108528C203.875 -0.322547 205.322 0.569163 206.49 2.09886C206.699 2.37475 207.135 2.64571 206.959 3.02013C206.799 3.36253 206.334 3.17286 206.003 3.2172C204.373 3.44136 202.914 4.05964 201.697 5.18044C199.593 7.11904 198.041 9.49119 196.642 11.9668C194.674 15.4523 193.151 19.1621 191.431 22.7708C190.781 24.133 190.146 25.5026 189.499 26.8672C189.407 27.0643 189.343 27.318 189.071 27.3352C188.757 27.355 188.691 27.0717 188.589 26.8598C186.721 23.0023 184.857 19.1424 182.984 15.2873C182.894 15.1001 182.87 14.7774 182.609 14.7947C182.412 14.8094 182.378 15.105 182.298 15.2873C180.636 19.0389 178.979 22.7905 177.32 26.5445C177.279 26.6381 177.242 26.7342 177.191 26.8229C177.077 27.0298 177.036 27.3254 176.736 27.3426C176.425 27.3599 176.362 27.0692 176.255 26.8598C174.325 23.0565 172.423 19.2384 170.462 15.4523C169.105 12.8289 167.905 10.1045 165.918 7.86296C165.84 7.77674 165.706 7.66836 165.801 7.55505C165.862 7.48115 166.017 7.46637 166.132 7.46637C168.482 7.46144 170.832 7.46637 173.182 7.46144C173.506 7.46144 173.654 7.57968 173.51 7.90483C173.226 8.54282 173.355 9.16111 173.639 9.73998C175.396 13.3117 177.167 16.8737 178.936 20.438C178.97 20.507 179.033 20.5612 179.174 20.7361L179.176 20.7287Z" fill="black"/>
<path d="M69.5534 20.7016C70.0351 19.672 70.4949 18.7236 70.9255 17.7604C71.4753 16.5313 72.0178 15.2972 72.536 14.0532C73.1393 12.6048 72.9934 11.1736 72.3706 9.76954C72.0884 9.13402 71.7405 8.53297 71.3488 7.95903C71.1298 7.64126 71.0909 7.45159 71.5775 7.45405C73.604 7.46144 75.6306 7.45898 77.6547 7.45405C78.0342 7.45405 78.1364 7.57968 77.9271 7.927C77.0902 9.30891 77.1486 10.676 77.8542 12.122C79.1046 14.6887 80.2675 17.3023 81.4742 19.8912C81.5667 20.0883 81.6129 20.3198 81.8829 20.4922C82.0775 20.0291 82.2527 19.5759 82.4571 19.1374C83.7732 16.3145 84.6223 13.3241 85.5662 10.3681C86.425 7.6856 87.2692 4.98338 88.8992 2.63586C89.7969 1.34264 90.8844 0.332687 92.5144 0.0641889C93.9789 -0.17475 95.1929 0.293275 96.2171 1.31554C96.6039 1.69981 96.9226 2.15798 97.2511 2.59891C97.4773 2.9019 97.436 3.16301 97.0102 3.18025C93.6286 3.33051 91.5023 5.4046 89.6315 7.96149C87.6341 10.6933 86.0503 13.6418 84.6588 16.7234C83.1383 20.0907 81.5302 23.4162 79.9537 26.7588C79.8442 26.9879 79.7931 27.318 79.472 27.3328C79.1046 27.3525 79.0584 26.9855 78.9416 26.7441C77.1219 22.9974 75.3119 19.2483 73.497 15.4992C73.368 15.2331 73.2221 14.9769 73.0177 14.5927C72.6674 15.3735 72.3779 16.0164 72.0908 16.6643C70.5946 20.0439 69.1008 23.4235 67.5998 26.7983C67.5049 27.0101 67.4733 27.3131 67.1692 27.3353C66.8286 27.3599 66.7605 27.047 66.6461 26.8204C64.0284 21.6943 61.4131 16.5707 58.8027 11.4421C58.141 10.139 57.2189 9.02317 56.3382 7.87527C56.2677 7.78167 56.1971 7.68807 56.1266 7.59446C56.2847 7.39001 56.4818 7.45898 56.6496 7.45652C58.8781 7.45159 61.1066 7.46144 63.335 7.44666C63.8362 7.44174 64.0625 7.53534 63.8557 8.09943C63.6635 8.62411 63.7608 9.15865 64.0041 9.64884C65.7849 13.2526 67.573 16.854 69.3612 20.4553C69.3879 20.507 69.4366 20.5489 69.5607 20.6992L69.5534 20.7016Z" fill="black"/>
<path d="M122.163 1.59635C125.221 1.59635 128.282 1.59635 131.34 1.59635C132.177 1.59635 132.211 1.65301 131.834 2.4117C131.225 3.63596 130.598 4.85036 129.997 6.07954C129.766 6.55249 129.564 6.61653 129.167 6.21256C127.73 4.74197 126.124 3.51772 124.144 2.86987C122.667 2.38707 121.144 2.44865 119.626 2.45358C118.066 2.4585 118.261 2.29593 118.259 3.8207C118.251 6.99095 118.271 10.1612 118.244 13.3315C118.239 13.9621 118.439 14.1468 119.044 14.1271C120.217 14.0852 121.394 14.0926 122.569 14.1197C124.508 14.1665 126.119 13.4546 127.476 12.0801C127.705 11.8486 127.919 11.3584 128.236 11.5037C128.523 11.6343 128.35 12.1368 128.352 12.4742C128.367 13.9473 128.362 15.4203 128.352 16.8909C128.352 17.083 128.44 17.3491 128.219 17.4476C127.99 17.5511 127.875 17.29 127.737 17.1594C126.681 16.1568 125.591 15.2134 124.09 14.9745C123.852 14.9375 123.611 14.8858 123.37 14.8833C121.852 14.871 120.331 14.8686 118.813 14.8661C118.533 14.8661 118.261 14.8907 118.266 15.2701C118.293 18.4379 118.127 21.6081 118.443 24.7685C118.516 25.4853 118.782 26.1578 119.027 26.8278C119.159 27.1899 119.115 27.3845 118.701 27.3845C116.675 27.3845 114.651 27.3845 112.624 27.3845C112.228 27.3845 112.116 27.2121 112.286 26.8426C112.918 25.473 113.011 24.0147 113.008 22.5294C112.994 16.987 112.999 11.4446 113.004 5.90218C113.004 4.64344 112.843 3.41919 112.342 2.25159C112.094 1.67272 112.152 1.60128 112.809 1.59882C115.928 1.59389 119.049 1.59882 122.168 1.59635H122.163Z" fill="black"/>
<path d="M45.3978 7.08456C47.6579 7.12151 49.8353 7.64126 51.6988 9.11923C54.1925 11.0948 55.443 13.7478 55.6376 16.8958C55.7982 19.4749 55.2751 21.9062 53.6865 24.0073C52.02 26.2071 49.8134 27.5052 47.0886 27.8624C44.8626 28.1555 42.6828 27.9757 40.6052 27.0495C35.7638 24.8917 34.146 19.5931 35.0802 15.4179C35.8125 12.1515 37.5447 9.67101 40.5078 8.13392C42.0113 7.35306 43.6535 7.09688 45.3978 7.08702V7.08456ZM50.4995 17.6471C50.5287 16.785 50.4873 15.9253 50.3462 15.0779C50.0105 13.0753 49.5701 11.0973 48.361 9.4099C47.6506 8.41966 46.7651 7.6856 45.4659 7.62402C44.0354 7.55505 43.0404 8.28418 42.2522 9.37542C41.4177 10.5307 40.9166 11.8535 40.5833 13.228C40.0432 15.4721 39.9532 17.7531 40.2256 20.0439C40.4592 21.9948 41.0041 23.8374 42.0965 25.4927C43.8068 28.0841 46.9402 28.0397 48.5654 25.3893C50.0202 23.0171 50.4678 20.3839 50.4946 17.6496L50.4995 17.6471Z" fill="black"/>
<path d="M154.931 7.09195C160.592 7.09195 164.611 10.7746 165.205 16.5214C165.485 19.2236 164.93 21.7362 163.334 23.9458C161.67 26.2489 159.371 27.5052 156.588 27.8722C154.483 28.1506 152.401 28.0028 150.45 27.1431C147.046 25.643 145.068 22.9999 144.567 19.2631C144.2 16.5214 144.708 13.9522 146.214 11.649C148.265 8.51327 151.25 7.09934 154.931 7.09195ZM149.751 17.6127C149.751 18.1644 149.715 18.7187 149.759 19.268C149.949 21.6697 150.552 23.9359 151.982 25.9164C153.097 27.4584 155.289 27.8575 156.867 26.8056C157.918 26.1061 158.48 25.037 158.94 23.9187C160.213 20.8272 160.402 17.6127 159.836 14.3513C159.505 12.4496 158.921 10.6194 157.714 9.05765C156.42 7.38262 154.308 7.14614 152.673 8.48617C151.963 9.06751 151.491 9.82866 151.111 10.644C150.087 12.8487 149.652 15.1789 149.751 17.6102V17.6127Z" fill="black"/>
<path d="M140.984 12.6516C140.984 15.6371 140.979 18.6251 140.984 21.6106C140.986 23.394 141.04 25.17 141.74 26.85C141.906 27.2441 141.716 27.3821 141.356 27.3821C139.351 27.3821 137.344 27.3821 135.339 27.3821C134.933 27.3821 134.836 27.185 134.999 26.8327C135.685 25.3424 135.731 23.7536 135.729 22.15C135.719 17.3442 135.707 12.5358 135.738 7.72994C135.748 6.38006 135.536 5.12378 134.777 4.00052C134.493 3.57684 134.639 3.44628 135.077 3.3847C136.952 3.12606 138.775 2.67035 140.485 1.8279C140.906 1.62099 140.979 1.87963 140.981 2.2171C140.984 3.21966 140.984 4.22222 140.984 5.22478C140.984 7.70038 140.984 10.1735 140.984 12.6491V12.6516Z" fill="black"/>
</svg>
